<svg id="Layer_2" data-name="Layer 2" xmlns="http://www.w3.org/2000/svg" width="24.68" height="19.047" viewBox="0 0 24.68 19.047">
  <g id="Layer_1" data-name="Layer 1" transform="translate(0)">
    <path id="Path_6524" data-name="Path 6524" d="M6.9,0A3.792,3.792,0,0,0,6.57,7.568,7.2,7.2,0,0,0,0,15.005v2.032a35.4,35.4,0,0,0,5.18.6V16.33a7.575,7.575,0,0,1,5.576-7.5,4.255,4.255,0,0,1-1.019-.617,6.457,6.457,0,0,0-2.51-.646,3.794,3.794,0,0,0,1.569-.5,4.028,4.028,0,0,1,.682-4.814,3.942,3.942,0,0,1,.617-.5A3.791,3.791,0,0,0,6.9,0ZM17.78,0a3.791,3.791,0,0,0-3.194,1.75,3.933,3.933,0,0,1,.617.506,4.028,4.028,0,0,1,.679,4.815,3.789,3.789,0,0,0,1.568.5,6.471,6.471,0,0,0-2.511.647,4.259,4.259,0,0,1-1.019.615,7.578,7.578,0,0,1,5.576,7.5v1.291a35.417,35.417,0,0,0,5.183-.618v-2a7.2,7.2,0,0,0-6.573-7.433A3.791,3.791,0,0,0,17.778,0ZM12.34,1.328A3.791,3.791,0,0,0,12.011,8.9a7.2,7.2,0,0,0-6.57,7.433v2.032a35.4,35.4,0,0,0,6.9.686,35.414,35.414,0,0,0,6.9-.713v-2A7.2,7.2,0,0,0,12.667,8.9a3.791,3.791,0,0,0-.329-7.568Z" transform="translate(0)" fill="#fff"/>
  </g>
</svg>
