<svg xmlns="http://www.w3.org/2000/svg" xmlns:xlink="http://www.w3.org/1999/xlink" width="40" height="40" viewBox="0 0 40 40">
  <defs>
    <clipPath id="clip-path">
      <circle id="Ellipse_85" data-name="Ellipse 85" cx="20" cy="20" r="20" transform="translate(493 333)" fill="#fff" stroke="#707070" stroke-width="1"/>
    </clipPath>
  </defs>
  <g id="Mask_Group_6" data-name="Mask Group 6" transform="translate(-493 -333)" clip-path="url(#clip-path)">
    <g id="Layer_2" data-name="Layer 2" transform="translate(494.329 332.998)">
      <g id="OBJECTS">
        <path id="Path_5736" data-name="Path 5736" d="M37.344,21.338a18.664,18.664,0,0,1-9.287,16.128c-.274.16-.555.312-.836.461L27.086,38l-.114.056c-.347.173-.694.347-1.041.482a17.927,17.927,0,0,1-2.487.843l-.309.083a18.386,18.386,0,0,1-2.463.434c-.326.035-.652.062-.982.08S19.014,40,18.674,40s-.694,0-1.02-.028-.756-.049-1.131-.1a18.088,18.088,0,0,1-3.611-.784l-.146-.049h0a18.984,18.984,0,0,1-2.359-.964c-.278-.135-.552-.278-.815-.427l-.118-.066c-.042-.024-.083-.045-.125-.073A18.664,18.664,0,0,1,6.883,6.862c.392-.319.8-.628,1.218-.916h0l.392-.26A18.664,18.664,0,0,1,26.459,4.371c.177.083.347.167.534.257a18.2,18.2,0,0,1,2.428,1.454A18.643,18.643,0,0,1,37.344,21.338Z" fill="#dbdbdb"/>
        <path id="Path_5737" data-name="Path 5737" d="M21.907,33.22l-2.085,1.755L17.463,33.22V29.487h4.444Z" fill="#fff"/>
        <path id="Path_5738" data-name="Path 5738" d="M17.262,29.289V33.32l2.567,1.911L22.108,33.3V29.289Zm4.447,3.837-1.894,1.6-2.154-1.6V29.688h4.048Z"/>
        <path id="Path_5739" data-name="Path 5739" d="M28.058,37.466c-.274.16-.555.312-.836.461L27.086,38l-.114.056c-.347.173-.694.347-1.041.482a17.927,17.927,0,0,1-2.487.843l-.309.083a18.386,18.386,0,0,1-2.463.434c-.326.035-.652.062-.982.08S19.014,40,18.674,40s-.694,0-1.02-.028-.756-.049-1.131-.1a18.088,18.088,0,0,1-3.611-.784l-.146-.049h0l-.111-.062a.316.316,0,0,1-.167-.347,6.425,6.425,0,0,1,.833-2.213,7.556,7.556,0,0,1,.694-.985,9.574,9.574,0,0,1,1.3-1.3c.257-.215.506-.409.739-.576a11.062,11.062,0,0,1,1.2-.746h.028a.309.309,0,0,1,.2,0,.291.291,0,0,1,.125.066l.073.062a3,3,0,0,0,4.048-.049l.17-.153a.035.035,0,0,1,.028,0,1.5,1.5,0,0,1,.2.028,10.06,10.06,0,0,1,2.3.881,10.181,10.181,0,0,1,1.183.742,8.949,8.949,0,0,1,1,.86,6.373,6.373,0,0,1,.829,1.041C27.964,37.088,28.016,37.244,28.058,37.466Z" fill="#969696"/>
        <path id="Path_5740" data-name="Path 5740" d="M24.426,33.65c-4.555,3.337-7.347,1.11-8.388-.09a8.055,8.055,0,0,0-.746.576c3.7,4.857,8.673,1.568,10.317.257Z" fill="#6d6d6d"/>
        <path id="Path_5741" data-name="Path 5741" d="M26.615,35.266c-4.51,4.208-9.793,3.042-11.816.971-.243-.25-.517-.52-.8-.787a7.9,7.9,0,0,0-.694.985l.288.347c5.707,5.2,11.7,1.294,13.848-.489Z" fill="#6d6d6d"/>
        <path id="Path_5742" data-name="Path 5742" d="M10.123,16.568s-1.232-1.811-2.328-1.325-1.36,2.265-1.232,2.845.694,2.775,4.465,2.265Z" fill="#fff"/>
        <path id="Path_5743" data-name="Path 5743" d="M28.356,20.467,28.55,16s1.488-1.471,2.324-.565a2.973,2.973,0,0,1,.614,3.362A3.176,3.176,0,0,1,28.356,20.467Z" fill="#fff"/>
        <path id="Path_5744" data-name="Path 5744" d="M10.709,20.391l-.33-2.7v-.114l-.139-1.127-.017-.056a4.232,4.232,0,0,0-.316-.423l-.031-.035-.042-.049a1.61,1.61,0,0,0-.132-.135,1.929,1.929,0,0,0-.173-.163,2.5,2.5,0,0,0-.6-.4,1.613,1.613,0,0,0-1.44,0c-.867.423-1.315,2.106-.9,3.4A2.8,2.8,0,0,0,9.536,20.5h.43a6.22,6.22,0,0,0,.621-.08l.139-.021Zm-.926-.17H9.62a2.512,2.512,0,0,1-2.758-1.7c-.4-1.245.076-2.706.746-3.028a1.388,1.388,0,0,1,.611-.149,1.478,1.478,0,0,1,.725.2,2.467,2.467,0,0,1,.59.472c.066.069.125.135.173.2s.1.132.142.187h0a.392.392,0,0,1,.035.045l.049.076.246,2.005.1.781.1.843c-.149.024-.291.038-.43.052Z"/>
        <path id="Path_5745" data-name="Path 5745" d="M9.984,17.692s-.985-1.877-1.97-.94.326,3.1,2.345,2.536Z" fill="#6d6d6d"/>
        <path id="Path_5746" data-name="Path 5746" d="M30.764,15.219a1.606,1.606,0,0,0-1.041-.142,2.081,2.081,0,0,0-.84.4,1.9,1.9,0,0,0-.156.125,1.773,1.773,0,0,0-.167.156,3.622,3.622,0,0,0-.4.461,1.78,1.78,0,0,0-.128.191l-.2,1.634L27.621,19.7l-.094.725.142.021a5.856,5.856,0,0,0,.93.094h.326a2.752,2.752,0,0,0,2.741-1.908C32.082,17.324,31.638,15.642,30.764,15.219Zm-2.8,4.1.1-.781.25-2.005c0-.021.038-.059.073-.111s.094-.128.156-.2l.031-.035c.052-.059.1-.121.167-.184a2.151,2.151,0,0,1,.16-.146,1.97,1.97,0,0,1,.784-.454,1.311,1.311,0,0,1,.951.1c.67.326,1.148,1.783.749,3.028a2.448,2.448,0,0,1-2.453,1.7H28.37a3.238,3.238,0,0,1-.51-.059Z"/>
        <path id="Path_5747" data-name="Path 5747" d="M28.259,17.692s.985-1.877,1.97-.94-.347,3.1-2.345,2.536Z" fill="#6d6d6d"/>
        <path id="Path_5748" data-name="Path 5748" d="M28.769,20.048c0,7.306-3.7,10.976-9.141,10.976s-9.849-3.618-9.849-10.9c0-14.161-2.911-12.568,9.769-13.446C28.3,6.05,28.769,6.938,28.769,20.048Z" fill="#fff"/>
        <path id="Path_5749" data-name="Path 5749" d="M9.883,16.454v-.2a.465.465,0,0,0-.038-.049c0,.073,0,.139,0,.2h0a2.065,2.065,0,0,1-.038,1.016h0c.045.059.076.108.1.149C9.9,17.193,9.894,16.815,9.883,16.454Zm19.045,2.9V15.472c-.118-4.423-.52-6.747-1.821-7.979s-3.518-1.284-7.573-1c-1.155.076-2.182.139-3.094.191-2.865.167-4.61.278-5.655.746a2.3,2.3,0,0,0-.548.33c-1.041.833-.978,2.46-.812,5.852.031.611.062,1.266.09,1.988v.42c0,.347.028.694.035,1.079v.427c.017.586.028,1.2.031,1.863v.694a.715.715,0,0,0,0,.125.756.756,0,0,0,0,.2.486.486,0,0,0,0,.1c.135,5.589,3.035,9.457,7.632,10.425l.2.045.2.031a11.254,11.254,0,0,0,1.967.167,10.844,10.844,0,0,0,2.081-.194l.2-.042a.709.709,0,0,0,.2-.049c4.25-1,6.733-4.711,6.865-10.366a.423.423,0,0,0,0-.094q0-.1,0-.208v-.173C28.932,19.808,28.932,19.583,28.929,19.354Zm-.326.694v.475c-.128,5.53-2.428,9.068-6.491,10.06l-.2.045-.2.042a11.136,11.136,0,0,1-4.048,0,1.968,1.968,0,0,1-.2-.035,1.3,1.3,0,0,1-.2-.045c-3.781-.822-7.174-3.778-7.309-10.095a.309.309,0,0,1,0-.08.923.923,0,0,1,0-.219.562.562,0,0,1,0-.111c0-.246,0-.489,0-.725,0-.631,0-1.228-.024-1.8,0-.385-.021-.763-.031-1.124v-.506c0-.281-.024-.548-.035-.808-.024-.548-.052-1.041-.073-1.54-.18-3.573-.253-5.079,1.072-5.793l.045-.024c.971-.5,2.671-.6,5.585-.767.916-.056,1.946-.111,3.1-.194s2.227-.135,3.122-.135c2.04,0,3.32.274,4.163,1.065,1.245,1.166,1.624,3.5,1.735,8v3.636Z"/>
        <path id="Path_5750" data-name="Path 5750" d="M9.065,7.372s-.767,10.425.6,10.15c.611-.121-.371-2.081.6-4.163,1.152-2.477.441-6.421.441-6.421Z" fill="#1e1e1e"/>
        <path id="Path_5751" data-name="Path 5751" d="M26.792,8.909s-6.421.493-8.506.163c-1.422-.225-.444-.985.323-1.447a.153.153,0,0,0-.094-.281c-2.317.243-9.2.881-10.383-.028-1.426-1.1,1.041-1.537,1.041-1.537s-4.059-.274-3.622-3,22.5-.892,22.5-.892S28.547-.2,29.262.017s-.659,2.3-.274,2.248,1.644-1.152,1.922-.531S29.14,2.869,29.14,3.091s1.388,12.676.167,13.117-1.263.548-1.537-2.428S27.059,8.909,26.792,8.909Z"/>
        <path id="Path_5752" data-name="Path 5752" d="M18.448,11.323s1.481,8.673.6,8.836-2.428-.659-2.3,1.152,2.8.767,2.47.493-1.922.441-1.811-.659,1.825-.094,2.248-.6C20.207,19.885,19.326,9.4,18.448,11.323Z"/>
        <path id="Path_5753" data-name="Path 5753" d="M23.059,23.916v.826a3.6,3.6,0,0,1-3.594,3.594h-.219a3.6,3.6,0,0,1-3.6-3.594v-.826a.413.413,0,0,1,.413-.409h6.591A.409.409,0,0,1,23.059,23.916Z" fill="#6d6d6d"/>
        <path id="Path_5754" data-name="Path 5754" d="M22.4,26.819a3.584,3.584,0,0,1-2.931,1.516h-.219a3.6,3.6,0,0,1-2.688-1.207,3.393,3.393,0,0,1,3.018-1.648,3.469,3.469,0,0,1,2.82,1.339Z" fill="#969696"/>
        <path id="Path_5755" data-name="Path 5755" d="M16.148,10.334a.614.614,0,0,1,.444.52c.042.347.066.742-.062.742a8.41,8.41,0,0,0-4.832.437C9.557,13.054,11.073,9,16.148,10.334Z"/>
        <path id="Path_5756" data-name="Path 5756" d="M21.616,10.376a.375.375,0,0,0-.264.305c-.052.347-.118.916.038.916a8.4,8.4,0,0,1,4.829.437C28.415,13.075,26.816,8.919,21.616,10.376Z"/>
        <path id="Path_5757" data-name="Path 5757" d="M13.935,18.7a1.46,1.46,0,1,1-1.447-1.457A1.46,1.46,0,0,1,13.935,18.7Z" fill="#a8a8a8"/>
        <path id="Path_5758" data-name="Path 5758" d="M28,18.7a1.457,1.457,0,1,1-.428-1.031A1.46,1.46,0,0,1,28,18.7Z" fill="#a8a8a8"/>
        <path id="Path_5759" data-name="Path 5759" d="M10.966,12.693h5.748a.583.583,0,0,1,.583.583v2.578a3.264,3.264,0,0,1-3.264,3.264h-.389a3.264,3.264,0,0,1-3.264-3.264V13.28a.583.583,0,0,1,.583-.583Z" fill="#fff"/>
        <path id="Path_5760" data-name="Path 5760" d="M17.692,12.808a1.086,1.086,0,0,0-.971-.607H10.966a1.016,1.016,0,0,0-.312.049A1.072,1.072,0,0,0,9.89,13.29v2.692a2.373,2.373,0,0,0,.024.316,3.611,3.611,0,0,0,.465,1.395l.021.038a3.6,3.6,0,0,0,.628.8A3.7,3.7,0,0,0,13.62,19.6h.413a3.76,3.76,0,0,0,3.76-3.743V13.276A1.068,1.068,0,0,0,17.692,12.808Zm-3.66,5.814h-.389a2.775,2.775,0,0,1-2.137-1.013,2.737,2.737,0,0,1-.631-1.755V13.276a.094.094,0,0,1,.09-.09h5.748a.094.094,0,0,1,.09.09v2.578A2.775,2.775,0,0,1,14.032,18.622Z"/>
        <path id="Path_5761" data-name="Path 5761" d="M21.161,12.693H26.92a.583.583,0,0,1,.583.583v2.578a3.264,3.264,0,0,1-3.264,3.264h-.385a3.264,3.264,0,0,1-3.264-3.264V13.28A.583.583,0,0,1,21.161,12.693Z" fill="#fff"/>
        <path id="Path_5762" data-name="Path 5762" d="M27.641,12.489h0a1.058,1.058,0,0,0-.718-.278H21.161a1.075,1.075,0,0,0-1.079,1.075v2.567a3.76,3.76,0,0,0,3.771,3.754h.389A3.764,3.764,0,0,0,28,15.854V13.276a1.058,1.058,0,0,0-.361-.787Zm-.631,3.365a2.706,2.706,0,0,1-.378,1.388A2.775,2.775,0,0,1,25.1,18.483a2.685,2.685,0,0,1-.857.135h-.389a2.775,2.775,0,0,1-2.775-2.775V13.276a.1.1,0,0,1,.083-.094h5.762a.09.09,0,0,1,.087.09Z"/>
        <ellipse id="Ellipse_94" data-name="Ellipse 94" cx="0.493" cy="1.318" rx="0.493" ry="1.318" transform="translate(14.005 13.901)"/>
        <ellipse id="Ellipse_95" data-name="Ellipse 95" cx="0.493" cy="1.318" rx="0.493" ry="1.318" transform="translate(23.884 14.119)"/>
        <path id="Path_5763" data-name="Path 5763" d="M20.967,12.967l-.194.933a6.364,6.364,0,0,0-3.608.08l-.1-.964a5.516,5.516,0,0,1,3.9-.049Z"/>
      </g>
    </g>
  </g>
</svg>
