<svg id="Layer_x0020_1" xmlns="http://www.w3.org/2000/svg" width="198.086" height="198.087" viewBox="0 0 198.086 198.087">
  <path id="Path_5787" data-name="Path 5787" d="M36.676,99.033a62.376,62.376,0,1,1,116.4,31.193l31.76,18.336A99.05,99.05,0,1,0,.009,99.033H36.677Z" transform="translate(-0.009 0.01)" fill="#1776ce" fill-rule="evenodd"/>
  <path id="Path_5788" data-name="Path 5788" d="M36.667,2692.08H0a98.718,98.718,0,0,0,8.019,39.1l33.7-14.477a62.173,62.173,0,0,1-5.05-24.627Z" transform="translate(0 -2593.037)" fill="#b50e0e" fill-rule="evenodd"/>
  <path id="Path_5789" data-name="Path 5789" d="M251.668,3361.48l-33.7,14.477a99.435,99.435,0,0,0,43.051,47.565l17.76-32.087A62.627,62.627,0,0,1,251.668,3361.48Z" transform="translate(-209.951 -3237.809)" fill="#2399b8" fill-rule="evenodd"/>
  <path id="Path_5790" data-name="Path 5790" d="M1490.131,3539.95a62.419,62.419,0,0,1-84.241,23.391l-17.76,32.086a99.11,99.11,0,0,0,133.761-37.141l-31.76-18.336Z" transform="translate(-1337.06 -3409.713)" fill="#52c9e8" fill-rule="evenodd"/>
</svg>
