<svg id="Layer_2" data-name="Layer 2" xmlns="http://www.w3.org/2000/svg" width="21.791" height="21.79" viewBox="0 0 21.791 21.79">
  <g id="Layer_2-2" data-name="Layer 2" transform="translate(0)">
    <path id="Path_6523" data-name="Path 6523" d="M21.763,10.125A2.767,2.767,0,0,1,18.12,7.5c0-.02,0-.039,0-.059a2.766,2.766,0,0,1-3.8-3.906,2.766,2.766,0,0,1-2.2-3.466A11,11,0,0,0,10.9,0,10.9,10.9,0,1,0,21.79,10.9C21.79,10.636,21.78,10.379,21.763,10.125Zm-16.913.943a.878.878,0,1,1,.878-.878.878.878,0,0,1-.878.878Zm2.712,5.387a.878.878,0,1,1,.878-.878.878.878,0,0,1-.878.878ZM9.313,5.565a.878.878,0,1,1,.878-.878.878.878,0,0,1-.878.878Zm1.583,5.5a.878.878,0,1,1,.878-.878.878.878,0,0,1-.878.878Zm4.171,4.512a.878.878,0,1,1,.878-.878A.878.878,0,0,1,15.066,15.579Z" transform="translate(0)" fill="#fff"/>
  </g>
</svg>
