<svg id="Layer_2" data-name="Layer 2" xmlns="http://www.w3.org/2000/svg" width="23.909" height="23.62" viewBox="0 0 23.909 23.62">
  <g id="Layer_1" data-name="Layer 1" transform="translate(0 0)">
    <g id="NewGroupe0">
      <g id="NewGroup53-4">
        <path id="Path_6525" data-name="Path 6525" d="M3.132,18.373a.481.481,0,1,1-.341.141A.482.482,0,0,1,3.132,18.373Zm1.63,0a.482.482,0,1,1-.481.481.482.482,0,0,1,.481-.481Zm1.631,0a.482.482,0,1,1-.481.481A.482.482,0,0,1,6.394,18.373Zm17.515.863a1.716,1.716,0,0,0-1.716-1.716H13.706a.037.037,0,0,0-.037.037v2.372a.036.036,0,0,0,.037.037h7.511a.038.038,0,0,1,.047.038v9.9a.037.037,0,0,1-.037.037H2.687A.037.037,0,0,1,2.65,29.9V20a.038.038,0,0,1,.037-.038h7.556a.037.037,0,0,0,.037-.037V17.557a.037.037,0,0,0-.037-.037H1.716A1.716,1.716,0,0,0,0,19.236V30.853A1.717,1.717,0,0,0,1.716,32.57h8.746a.085.085,0,0,1,.085.086v3.759a.085.085,0,0,1-.085.085H6.409a1.173,1.173,0,0,0-1.173,1.172v.472a1.174,1.174,0,0,0,1.173,1.173H17.482a1.173,1.173,0,0,0,1.172-1.173v-.472A1.172,1.172,0,0,0,17.482,36.5H13.447a.085.085,0,0,1-.085-.085V32.655a.085.085,0,0,1,.085-.086h8.746a1.717,1.717,0,0,0,1.716-1.717Z" transform="translate(0 -15.696)" fill="#fff"/>
        <path id="Path_6526" data-name="Path 6526" d="M45.73,113.217v.741a.036.036,0,0,0,.037.037H59.926a.036.036,0,0,0,.037-.037v-.741a.036.036,0,0,0-.037-.037H45.767a.036.036,0,0,0-.037.037Z" transform="translate(-40.892 -101.236)" fill="#037ae0"/>
        <path id="Path_6527" data-name="Path 6527" d="M83.307,2.1V1.128a.88.88,0,0,0-1.759,0V7.356l-1.29-1.289a.88.88,0,0,0-1.244,1.242l2.766,2.765a.9.9,0,0,0,1.375-.122L85.8,7.308a.879.879,0,0,0-1.243-1.241L83.308,7.315V2.1Z" transform="translate(-70.454 -0.278)" fill="#037ae0"/>
      </g>
    </g>
  </g>
</svg>
