<?xml version="1.0" encoding="utf-8"?>
<!-- Generator: Adobe Illustrator 23.0.1, SVG Export Plug-In . SVG Version: 6.00 Build 0)  -->
<svg version="1.1" id="Layer_1" xmlns="http://www.w3.org/2000/svg" xmlns:xlink="http://www.w3.org/1999/xlink" x="0px" y="0px"
	 viewBox="0 0 272.4 272.4" style="enable-background:new 0 0 272.4 272.4;" xml:space="preserve">
<style type="text/css">
	.st0{clip-path:url(#SVGID_2_);fill:#FFFFFF;}
	.st1{clip-path:url(#SVGID_4_);fill:url(#SVGID_5_);}
	.st2{clip-path:url(#SVGID_7_);fill:url(#SVGID_8_);}
	.st3{clip-path:url(#SVGID_10_);fill:url(#SVGID_11_);}
	.st4{clip-path:url(#SVGID_13_);fill:url(#SVGID_14_);}
	.st5{clip-path:url(#SVGID_16_);fill:url(#SVGID_17_);}
	.st6{clip-path:url(#SVGID_19_);fill:url(#SVGID_20_);}
	.st7{filter:url(#Adobe_OpacityMaskFilter);}
	.st8{clip-path:url(#SVGID_22_);fill:url(#SVGID_24_);}
	.st9{clip-path:url(#SVGID_22_);mask:url(#SVGID_23_);fill:url(#SVGID_25_);}
	.st10{filter:url(#Adobe_OpacityMaskFilter_1_);}
	.st11{clip-path:url(#SVGID_27_);fill:url(#SVGID_29_);}
	.st12{clip-path:url(#SVGID_27_);mask:url(#SVGID_28_);fill:url(#SVGID_30_);}
	.st13{filter:url(#Adobe_OpacityMaskFilter_2_);}
	.st14{clip-path:url(#SVGID_32_);fill:url(#SVGID_34_);}
	.st15{clip-path:url(#SVGID_32_);mask:url(#SVGID_33_);fill:url(#SVGID_35_);}
	.st16{fill:none;}
</style>
<g>
	<defs>
		<rect id="SVGID_1_" x="-17.3" y="-62.7" width="559.3" height="397.7"/>
	</defs>
	<clipPath id="SVGID_2_">
		<use xlink:href="#SVGID_1_"  style="overflow:visible;"/>
	</clipPath>
	<path class="st0" d="M192.8,192.8c-4.4,0.4-8.9,0.9-12.2,1.1c-1.1,0.1,1.1-0.4,0-0.4c-1.1,0.1-3.3,0.4-4.4,0.5
		c-1.1-0.1,1.1-0.5-0.1-0.6c-1.1-0.1-5.6,0.5-6.7,0.5c-3.4,0.2,2.2-0.5,5.5-0.8c-1.1,0,2.2-0.2,2.2-0.4c0-0.3-0.1-0.6-4.5-0.3
		c-1.1,0,0-0.3,0-0.4c-13.3,1.4-27.6,3.1-40.8,5.1c-0.9,1.3-1.9,2.5-2.9,3.7c21-2.8,42.1-5.3,62.9-7.4
		C193.9,193,192.8,192.9,192.8,192.8"/>
	<path class="st0" d="M85,203.8l3.3-0.5c-3.3,0.7-6.6,1-9.9,1.6c0,0.1,0,0.2-1.1,0.5c2.2-0.3,5.5-0.9,7.7-1.2l0,0.2
		c-2.2,0.4-5.5,0.8-7.7,1.2c0,0.1,0,0.2,0,0.3s-1.1,0.2-2.2,0.4c1.1-0.2,3.3-0.5,4.4-0.7c0,0.1,0,0.2,0,0.3c0,0.1-1.1,0.2-2.2,0.4
		c0,0.1-1.1,0.5,0.1,0.4l3.3-0.5c-4.4,0.8-6.6,1.5-6.5,1.7c1.1-0.2,1.1,0,2.2-0.3c-3.3,0.7-6.5,1.6-2.1,0.9
		c13.8-2.1,27.8-4.1,41.9-6.1c0.1-1,0.4-2.1,1.1-3.4c-7.3,1-14.8,2-21.3,3.1C92.7,202.6,87.1,203.1,85,203.8"/>
	<path class="st0" d="M67.6,163.4c2.7-3.1,5-6.1,7.1-8.8c2.1-2.7,3.8-5.2,5-7.4c1.3-2.2,1.9-4.2,1.9-5.8c0-1-0.2-1.7-0.6-2.3
		c-0.4-0.5-0.8-0.9-1.3-1.2c-0.5-0.2-0.9-0.4-1.4-0.5c-0.4-0.1-0.6-0.1-0.7-0.1c-0.1,0-0.3,0.1-0.5,0.2c-0.2,0.1-0.3,0.3-0.3,0.5
		c0,0.3,0,0.8,0.1,1.4c0.1,0.6,0.3,1,0.8,1.2c0.4,0,0.6,0.2,0.6,0.6c0,0.8-0.3,1.9-1,3.2c-0.7,1.3-1.5,2.8-2.6,4.4
		c-1.1,1.6-2.3,3.3-3.6,5.1c-1.3,1.8-2.7,3.6-4.2,5.5l-0.7,0.9c-1.8,2.3-3.5,4.5-5.2,6.8c-1.7,2.3-3.2,4.5-4.6,6.6
		c-1.4,2.1-2.5,4-3.4,5.7c-0.9,1.7-1.4,3.2-1.6,4.5l-0.3-4.1c-0.1-1.6-0.3-3.7-0.5-6.2c-0.2-2.5-0.4-5.2-0.7-8.2
		c-0.3-3-0.7-6.1-1.2-9.4c-0.5-3.3-1.1-6.7-1.9-10.1c-0.2-0.8-0.4-1.6-0.6-2.3c-0.1-0.5-0.3-0.9-0.4-1.3c-0.1-0.4-0.3-0.8-0.6-1.2
		c-0.1-0.1-0.3-0.4-0.6-0.7c-0.3-0.3-0.7-0.5-1.2-0.5h-0.1c-0.8,0.1-1.4,0.6-2.1,1.3c-0.6,0.7-1.1,1.4-1.4,2
		c-1.6,2.9-2.5,6.2-2.5,9.8c0,2.3,0.3,4.4,0.8,6.6c0.5,2.1,1.3,4,2.2,5.8c0.9,1.7,2,3.2,3.2,4.5c1.2,1.3,2.4,2.1,3.7,2.5l1.1,0.3
		c0.1,0.1,0.3,0.1,0.5,0.1c0.4,2.7,0.7,4.9,1,6.6c0.3,1.7,0.5,3,0.7,4c0.2,1,0.3,1.7,0.3,2.2c0,0.4,0.1,0.8,0.1,1
		c0.1,0.3,0.2,0.4,0.3,0.4c0.5-1.4,1.2-2.9,2-4.5c0.7-1.4,1.5-2.9,2.6-4.6c1-1.7,2.2-3.3,3.6-5C62.2,169.9,64.9,166.5,67.6,163.4
		 M45.9,168c-0.9-0.9-1.7-2.1-2.5-3.5c-0.8-1.4-1.5-3.1-2-5c-0.5-1.9-0.8-4.1-0.8-6.5c0-3.3,0.7-6,2.2-8.2c0.1-0.5,0.3-0.6,0.4-0.3
		c0.1,0.3,0.3,0.6,0.4,1c0.6,2,1.1,4.1,1.6,6.3c0.4,2.1,0.9,4.2,1.3,6.4l0.1,0.3c0.3,1.7,0.7,3.5,0.9,5.3c0.3,1.8,0.6,3.9,0.9,6
		C47.6,169.5,46.8,168.9,45.9,168"/>
	<path class="st0" d="M203.1,148.5c-0.3-0.1-0.5-0.1-0.7-0.2c-0.2,0-0.4-0.1-0.6-0.1H201l-1.7,2.6l-1.7,2.6c-0.7,1-1.5,2.3-2.5,3.7
		c-1,1.4-2,2.9-3.2,4.5c-0.1,0.1-0.2,0.2-0.3,0.4c-0.2,0.2-0.4,0.5-0.6,0.9c-0.5,0.7-1.1,1.6-1.8,2.5c-0.4,0.5-0.7,1-1.1,1.5
		c-0.4,0.5-0.7,1-1.1,1.5c-0.2,0.3-0.4,0.5-0.5,0.8c-0.2,0.2-0.3,0.5-0.5,0.7c-0.3,0.5-0.6,0.9-0.9,1.2c-0.1-0.3-0.1-0.5-0.2-0.7
		c-0.1-0.2-0.1-0.4-0.2-0.5c-0.1-0.2-0.2-0.4-0.5-0.6c-0.1-0.1-0.1-0.1-0.2-0.2l-0.1-0.1c-0.4,0-1,0.1-1.8,0.4
		c-0.3,0.1-0.6,0.2-0.9,0.3c-0.3,0.1-0.7,0.3-1,0.4c-0.7,0.3-1.4,0.6-2.1,1c-0.4,0.2-0.7,0.4-1.1,0.6c-0.4,0.2-0.7,0.4-1.1,0.7
		c-1,0.7-2,1.5-2.9,2.3c-0.3,0.3-0.5,0.5-0.7,0.8c-0.2,0.3-0.4,0.5-0.5,0.8c-0.3,0.5-0.4,1.1-0.5,1.6c-0.1,0-0.3,0.1-0.5,0.2
		c-0.3,0.1-0.7,0.2-1.1,0.4c-0.2,0.1-0.4,0.1-0.6,0.2c-0.5,0.2-1,0.3-1.5,0.4c-0.5,0.1-0.9,0.2-1.3,0.2c-0.6,0-1-0.2-1.3-0.5
		c-0.2-0.2-0.3-0.5-0.3-0.9c0-0.5,0.1-1.1,0.4-1.7c0.3-0.6,0.6-1.1,1-1.6c0.2-0.3,0.4-0.5,0.5-0.7c0.2-0.2,0.3-0.4,0.4-0.6
		c0.1-0.2,0.2-0.3,0.3-0.4c0.1-0.1,0.1-0.2,0.1-0.2c0.1-0.1,0.1-0.1,0.2-0.2c0.1-0.1,0.3-0.3,0.4-0.5c0.1-0.1,0.1-0.2,0.2-0.3
		c0.1-0.1,0.2-0.2,0.2-0.3c0.1-0.2,0.2-0.3,0.3-0.4c0-0.1,0-0.1,0-0.2c0-0.3-0.1-0.5-0.3-0.7c-0.1-0.1-0.3-0.2-0.4-0.3
		c-0.2-0.1-0.4-0.2-0.6-0.3c-0.2-0.1-0.4-0.2-0.6-0.2c-0.2-0.1-0.4-0.1-0.6-0.2c-0.4-0.1-0.7-0.1-1-0.1c-0.6,0-1.2,0.1-1.9,0.2
		c-0.6,0.1-1.1,0.2-1.8,0.4c-0.3,0.1-0.7,0.2-1,0.3c-0.6,0.3-1.3,0.6-1.9,0.9c-0.3,0.2-0.6,0.4-0.9,0.6c-0.3,0.2-0.6,0.4-0.9,0.6
		c-0.8,0.7-1.6,1.4-2.3,2.3c-0.4,0.6-0.8,1.2-1.1,1.9c-0.3,0.7-0.5,1.4-0.6,2.1c-0.2,0.1-0.4,0.1-0.5,0.2c-0.5,0.1-0.9,0.2-1.2,0.2
		c0.6-0.3,1-0.7,1.4-1.2c0.1-0.2,0.2-0.4,0.3-0.6c0.4-0.9,0.6-1.7,0.6-2.6c0-0.2,0-0.4,0-0.6c-0.1-0.7-0.3-1.4-0.8-2
		c-0.2-0.3-0.5-0.5-0.8-0.8c-0.1-0.1-0.3-0.2-0.5-0.3c-0.7-0.4-1.4-0.7-2.2-1c-0.8-0.2-1.7-0.3-2.6-0.3c-0.3-0.3-0.6-0.4-0.9-0.5
		c-0.1,0-0.2-0.1-0.3-0.1c-0.1,0-0.1-0.1-0.1-0.1l-0.1,0.1c-0.1,0.1-0.3,0.2-0.4,0.3c-0.1,0.1-0.3,0.3-0.5,0.4
		c-0.4,0.3-0.8,0.7-1.2,1.2c-0.2,0.2-0.5,0.4-0.7,0.7c-0.4,0.4-0.9,0.8-1.3,1.1c-0.2,0.2-0.4,0.3-0.6,0.4c-0.1,0.1-0.3,0.2-0.4,0.3
		c-0.1,0.1-0.3,0.2-0.4,0.4c-0.1,0.1-0.2,0.1-0.3,0.2c-0.1,0.1-0.2,0.2-0.4,0.3c-0.3,0.2-0.7,0.5-1.2,0.8c-0.4,0.3-0.8,0.5-1.2,0.8
		c-0.8,0.5-1.5,1-2.3,1.4c-0.4,0.2-0.7,0.4-1.1,0.6c-1.4,0.7-2.9,1.1-4.5,1.1c-0.1,0.1-0.2,0.3-0.2,0.4c0,0.1,0,0.2,0.1,0.2
		c0.1,0.1,0.1,0.1,0.3,0.1c-0.1,0-0.1,0-0.2,0c-1,0.2-1.9,0.3-2.7,0.3c-0.4,0-0.7-0.1-0.9-0.2c-0.2-0.1-0.3-0.3-0.3-0.5
		c0.3-0.8,0.7-1.5,1.1-2.2c0.4-0.7,0.9-1.4,1.3-2c0.5-0.6,0.9-1.3,1.3-1.9c0.4-0.7,0.7-1.4,1-2.2v-0.1c0.1-0.1,0.1-0.2,0.1-0.4
		c0,0,0-0.1-0.2-0.2c-0.1-0.1-0.2-0.1-0.3-0.2c-0.1-0.1-0.2-0.2-0.4-0.3c0,0,0,0-0.1,0c-0.6-0.3-0.9-0.6-0.9-0.6l-0.6-0.2
		c1.9-1.6,3.8-3.4,5.6-5.3c1-1,1.9-1.9,2.7-2.9c0.9-1,1.7-1.9,2.4-2.9c0.8-1,1.5-1.9,2.1-2.9c0.6-0.9,1.2-1.8,1.7-2.7
		c0.2-0.4,0.4-0.9,0.6-1.3c0.5-1.2,0.8-2.3,0.8-3.2c0-0.2,0-0.5,0-0.7c-0.1-0.7-0.2-1.3-0.4-1.9c-0.2-0.4-0.4-0.7-0.8-0.9
		c-0.4-0.2-0.8-0.3-1.4-0.3c-1,0-1.7,0.3-2.4,1c-0.5,0.5-0.8,0.9-1.2,1.2c-0.1,0.1-0.2,0.3-0.4,0.4c-1.6,1.7-3.1,3.5-4.6,5.1
		c-1.5,1.7-2.9,3.3-4.2,4.9c-0.7,0.8-1.3,1.6-2,2.4c-1.3,1.5-2.5,3-3.6,4.5c-0.6,0.7-1.1,1.4-1.6,2.1c-2.1,2.8-3.9,5.2-5.4,7.4
		c-0.8,1.1-1.4,2.1-1.9,3c-0.5,0.9-1,1.7-1.3,2.4c-0.2,0.2-0.5,0.3-0.7,0.4c-0.2,0.1-0.4,0.2-0.6,0.3c-0.7,0.2-1.5,0.3-2.3,0.4
		c-0.8,0.1-1.7,0.1-2.6,0.1c-1.3,0-2.3-0.1-3-0.2c-0.3-0.1-0.6-0.1-0.9-0.2c-0.2-0.1-0.4-0.2-0.6-0.2c-0.2-0.1-0.4-0.2-0.5-0.4
		c0,0-0.1-0.1-0.1-0.1c0-0.1,0-0.1-0.1-0.1c0-0.1-0.1-0.2-0.1-0.2v-0.1c0-0.1,0-0.1-0.1-0.2c0,0,0,0,0,0c0-0.1,0-0.3,0.2-0.6
		c0.1-0.2,0.3-0.4,0.4-0.6c0.3-0.4,0.6-0.8,0.9-1.1c0.2-0.2,0.3-0.3,0.5-0.5c0.7-0.6,1.4-1,2.1-1.4c0.7-0.3,1.3-0.6,1.8-0.7
		c0.3-0.1,0.5-0.1,0.7-0.2c0.2,0,0.3-0.1,0.4-0.1h0.3c-0.1,0.1-0.2,0.3-0.3,0.5c-0.1,0.2-0.3,0.4-0.5,0.6c-0.3,0.3-0.5,0.6-0.7,0.7
		c-0.1,0.1-0.1,0.1-0.1,0.1l-0.5,0.5v0.1c0,0.1,0,0.2,0.1,0.3c0,0.1,0.1,0.1,0.2,0.1l0.1,0.1c0.1,0,0.2,0,0.4-0.1
		c0.2,0,0.4-0.1,0.6-0.1c0.3-0.1,0.6-0.2,0.9-0.3c0.3-0.1,0.6-0.2,1-0.4c0.3-0.2,0.7-0.3,1-0.5c0.3-0.2,0.6-0.4,0.9-0.7
		c0.5-0.5,0.8-1.1,0.8-1.7c0-0.4,0-0.7-0.1-1c0-0.1-0.1-0.3-0.1-0.4c-0.1-0.1-0.1-0.2-0.2-0.3c-0.1-0.1-0.1-0.1-0.2-0.2
		c-0.2-0.2-0.4-0.4-0.7-0.5c-0.4-0.2-0.9-0.3-1.3-0.3c-0.3,0-0.6,0-0.9,0.1c-0.9,0.1-1.9,0.3-2.9,0.6c-0.3,0.1-0.7,0.2-1,0.3
		c-0.6,0.2-1.3,0.5-1.9,0.8c-0.3,0.2-0.6,0.3-0.9,0.5c-0.3,0.2-0.6,0.4-0.8,0.6c-0.8,0.6-1.5,1.3-2.1,2.1c-0.4,0.5-0.7,1.1-0.9,1.7
		c-0.1,0.3-0.2,0.6-0.2,0.9c0,0.3-0.1,0.6-0.1,1c0,0.3,0.1,0.6,0.1,0.9c-0.2,0-0.3,0.1-0.5,0.1c-0.2,0-0.3,0.1-0.5,0.1
		c-0.4,0.1-0.8,0.2-1.2,0.3c-0.4,0.1-0.8,0.2-1.1,0.2c-0.7,0.1-1.2,0.2-1.4,0.2c-0.4,0-0.7-0.1-0.9-0.3c0-0.3,0.2-0.7,0.6-1.3
		c0.1-0.2,0.3-0.4,0.5-0.6c0.2-0.2,0.4-0.5,0.6-0.8c0.6-0.8,1.2-1.8,2-3.1c0.2-0.3,0.3-0.5,0.5-0.8c0.2-0.4,0.4-0.8,0.6-1.1
		c0.2-0.3,0.3-0.7,0.3-1c0-0.1,0-0.1-0.1-0.2c-0.1-0.2-0.4-0.5-0.9-0.8c0,0,0,0,0,0c-0.2-0.1-0.3-0.2-0.5-0.2c0,0-0.1,0-0.1,0
		c-0.1,0-0.2,0-0.3-0.1c-0.1,0-0.1,0-0.2,0c0,0-0.1,0-0.1,0c-0.1,0-0.2,0.1-0.3,0.1c-0.5,0.5-1,0.9-1.3,1.4
		c-0.1,0.1-0.2,0.2-0.3,0.4c-0.3,0.4-0.7,0.8-1.1,1.3c-0.3,0.3-0.7,0.7-1.1,1.1c-0.4,0.4-0.8,0.7-1.2,1.1c-0.8,0.8-1.6,1.5-2.5,2.2
		c-0.8,0.7-1.6,1.2-2.4,1.7c-0.4,0.2-0.7,0.4-1,0.5c-0.3,0.1-0.6,0.2-0.8,0.2h-0.6h-0.1c0-0.2,0-0.4,0.1-0.6
		c0.1-0.2,0.2-0.5,0.4-0.8c0.3-0.6,0.8-1.2,1.2-1.8c0.5-0.6,0.9-1.2,1.3-1.6c0.4-0.5,0.6-0.8,0.8-0.9c0.5-0.5,0.9-1.1,1.2-1.5
		c0.3-0.5,0.6-1,0.9-1.4c0-0.1-0.1-0.3-0.1-0.4c-0.1-0.1-0.1-0.2-0.2-0.3c-0.2-0.2-0.4-0.3-0.7-0.4c-0.3-0.1-0.6-0.2-0.9-0.2
		c-0.3-0.1-0.5-0.1-0.8-0.1l-0.1,0.1c-0.3,0.3-0.6,0.5-0.9,0.8c-0.9,0.8-1.6,1.7-2.3,2.6c-0.4,0.5-0.8,1-1.2,1.5
		c-0.4,0.5-0.7,1.1-1,1.7c-0.1,0.2-0.2,0.4-0.3,0.7c-0.3,0.7-0.5,1.3-0.6,1.9c-0.2,0-0.5,0-0.8,0c-0.5,0-0.9,0-1.4-0.1
		c-0.2,0-0.4,0-0.6-0.1c-0.2,0-0.3-0.1-0.4-0.2c0.8-1.4,1.1-2.8,1.1-4.3c0-0.4-0.1-0.9-0.2-1.3c0-0.1-0.1-0.2-0.1-0.3
		c-0.1-0.4-0.3-0.8-0.5-1.2c-0.4-0.7-1-1.2-1.9-1.3c-0.3-0.1-0.6-0.1-0.9-0.1H73c-0.2,0-0.4,0.1-0.6,0.2l-0.2-0.2h-0.1H72
		c-0.4,0-1.2,0.4-2.3,1.1c-0.6,0.4-1.2,0.9-1.9,1.5c-0.7,0.6-1.5,1.4-2.4,2.3c-0.5,0.5-1.1,1.1-1.8,1.6c-0.4,0.3-0.9,0.7-1.4,1
		c-0.2,0.1-0.4,0.3-0.6,0.4c-0.2,0.1-0.3,0.2-0.5,0.3c-0.9,0.5-1.8,1-2.7,1.4c-0.3,0.2-0.7,0.3-1,0.4c-0.3,0.1-0.4,0.3-0.4,0.4
		c0.1,0.1,0.1,0.1,0.2,0.2c0.1,0,0.1,0.1,0.1,0.1c0.6-0.1,1.3-0.3,2.1-0.6c0.3-0.1,0.6-0.2,1-0.3c0.4-0.1,0.7-0.2,1.1-0.4
		c0.4-0.1,0.8-0.3,1.2-0.5c0.4-0.2,0.8-0.4,1.1-0.6c-0.1,0.3-0.2,0.5-0.2,0.8c-0.1,0.3-0.1,0.5-0.1,0.8c0,0.6,0.1,1.2,0.4,1.7
		c0.3,0.5,0.7,0.8,1.2,1.1c0.3,0.1,0.5,0.2,0.8,0.3c0.8,0.3,1.5,0.4,2.2,0.4c0.5,0,1.1-0.1,1.7-0.2c0.6-0.1,1.1-0.3,1.7-0.5
		c0.3-0.1,0.6-0.2,0.9-0.4c0.8-0.4,1.6-0.9,2.3-1.6c0.1,0,0.3,0,0.4,0.1c0.1,0,0.3,0.1,0.4,0.1h0.1c0.3,0,0.7,0,1,0
		c0.6,0,1.3-0.1,1.8-0.2c0.3-0.1,0.6-0.1,0.8-0.2c0,0.3,0.1,0.6,0.3,0.9c0.1,0.3,0.3,0.5,0.6,0.8c0.1,0.2,0.3,0.3,0.4,0.4
		c0.5,0.3,0.9,0.5,1.5,0.5c1.3,0,2.4-0.3,3.4-0.8c0.3-0.2,0.6-0.4,0.9-0.6c0.6-0.5,1.1-0.9,1.7-1.4c0.5-0.5,1-0.9,1.5-1.4
		c-0.1,0.1-0.2,0.2-0.2,0.4c0,0.2-0.1,0.4,0,0.6c0,0.3,0.1,0.6,0.2,0.9c0.1,0.2,0.1,0.3,0.2,0.5c0.1,0.2,0.3,0.5,0.5,0.7
		s0.4,0.4,0.7,0.6c0.2,0.1,0.3,0.2,0.5,0.2c0.1,0,0.1,0,0.2,0c0.1,0,0.3,0,0.4,0.1c0.1,0,0.2,0,0.3,0c0.1,0,0.1,0,0.2,0
		c0.2,0,0.4,0,0.6-0.1v0c0.9-0.2,1.7-0.4,2.4-0.7c0.7-0.2,1.3-0.5,1.8-0.8c0.2-0.1,0.4-0.2,0.5-0.3c0.2-0.1,0.3-0.2,0.5-0.3
		c0.2,0.2,0.4,0.4,0.6,0.6c0.2,0.2,0.5,0.3,0.7,0.5c0.3,0.2,0.6,0.3,0.9,0.4c0.3,0.1,0.7,0.2,1,0.3c0.3,0.1,0.7,0.1,1,0.2
		c0.3,0,0.6,0.1,0.9,0.1h0.5c1.7-0.1,3.2-0.4,4.6-0.7c1-0.3,1.9-0.6,2.7-0.9c0,0,0,0,0,0c0,0,0,0,0,0c0,0.1-0.1,0.3-0.1,0.4
		c0,0.1-0.1,0.2-0.1,0.4c0,0.4,0.1,0.7,0.2,0.9c0,0.1,0.1,0.1,0.1,0.1c0.1,0,0.1,0.1,0.2,0.1h0.1c0.3-0.1,0.6-0.2,0.9-0.3
		c0.3-0.1,0.6-0.3,0.9-0.5c0.2-0.1,0.3-0.2,0.4-0.3c0.3-0.2,0.5-0.3,0.6-0.4c0.1-0.1,0.1-0.1,0.2-0.1c0-0.3,0.3-0.7,1-1.2
		c0.7-0.4,1.5-0.9,2.5-1.3c1-0.4,1.9-0.9,2.9-1.4c0.1-0.1,0.2-0.1,0.3-0.2c0.8-0.4,1.5-0.8,2-1.1c-0.3,0.6-0.6,1.2-0.9,1.7
		c-0.1,0.3-0.2,0.6-0.3,0.9c-0.1,0.3-0.1,0.6-0.1,1c0,0.7,0.1,1.3,0.4,1.7c0.1,0.1,0.2,0.3,0.3,0.4c0.2,0.2,0.3,0.3,0.6,0.4
		c0.6,0.3,1.2,0.5,1.7,0.6c0.2,0,0.3,0,0.5,0c0.3,0,0.8-0.1,1.4-0.2c0.2,0,0.4-0.1,0.7-0.2c0.5-0.1,1-0.3,1.4-0.4
		c0.5-0.2,1-0.3,1.4-0.5c0.2-0.1,0.4-0.2,0.6-0.2c0.4-0.2,0.7-0.3,1.1-0.5c0.3-0.1,0.6-0.3,0.9-0.5c0.1-0.1,0.2-0.1,0.2-0.2
		c0.2,0,0.3-0.1,0.5-0.1c1.1-0.3,2.3-0.6,3.4-1c-1,0.8-2.2,1.9-3.6,3.1c-0.7,0.6-1.4,1.3-2.1,2c-0.7,0.7-1.4,1.4-2.1,2.2
		c-0.4,0.4-0.7,0.8-1.1,1.2c-0.5,0.6-1.1,1.1-1.6,1.7c-0.5,0.6-1,1.2-1.6,1.8c-0.7,0.8-1.4,1.6-2,2.4c-0.6,0.8-1.2,1.6-1.7,2.3
		c-0.3,0.4-0.5,0.8-0.8,1.1c-0.2,0.4-0.5,0.7-0.7,1.1c-0.3,0.5-0.5,0.9-0.8,1.4c-0.1,0.3-0.3,0.5-0.4,0.7c-0.5,1-0.8,1.9-0.9,2.7
		c0,0,0,0.1,0,0.1c0,0.3-0.1,0.5-0.1,0.8c0,0.1,0,0.1,0,0.2c0,0.1,0,0.2,0,0.3c0,0.1,0,0.2,0.1,0.4c0,0.1,0.1,0.3,0.2,0.4
		c0.1,0.1,0.2,0.3,0.3,0.4c0.1,0.1,0.2,0.2,0.4,0.3c0.3,0.2,0.7,0.3,1.3,0.3c0.3,0,0.7,0,1-0.1c0.3-0.1,0.7-0.2,1.1-0.4
		c0.7-0.4,1.4-0.8,2.1-1.4c0.5-0.4,0.9-0.8,1.4-1.3c0.1-0.2,0.3-0.3,0.4-0.4c0.2-0.2,0.3-0.4,0.5-0.6c0.1-0.1,0.2-0.2,0.3-0.3
		c0.1-0.1,0.2-0.3,0.4-0.4c0.1-0.1,0.2-0.2,0.3-0.3c0.7-0.9,1.4-1.8,2.1-2.7c0.1-0.2,0.3-0.4,0.4-0.5c0.8-1.1,1.7-2.3,2.5-3.4
		c1.7-2.4,3.2-4.6,4.6-6.7c0.4-0.5,0.7-1,1-1.5c0.6-1,1.2-1.9,1.8-2.7c0.3-0.4,0.5-0.8,0.8-1.2c0.2-0.4,0.5-0.7,0.7-1
		c0.4-0.6,0.7-1.1,0.9-1.4c0.1-0.2,0.2-0.3,0.2-0.4l3.7-5.5c0.1-0.1,0.3-0.2,0.6-0.2h0.7c0.3,0,0.6,0,0.9,0.1c0.3,0.1,0.7,0.2,1,0.3
		c0.3,0.1,0.6,0.3,0.8,0.5c0.2,0.2,0.3,0.4,0.3,0.7c0,0.1,0,0.3-0.1,0.5c-0.1,0.2-0.1,0.5-0.3,0.8c-0.1,0.3-0.3,0.6-0.6,0.9
		c-0.2,0.2-0.5,0.5-0.8,0.8c-0.1,0.1-0.2,0.2-0.4,0.3c-0.2,0.2-0.3,0.3-0.5,0.4c-0.5,0.4-0.9,0.7-1.3,0.8c-0.4,0.2-0.8,0.5-1,1
		c-0.1,0.2-0.1,0.4-0.2,0.6c0,0.2,0,0.3,0.1,0.5c0.1,0.2,0.2,0.4,0.3,0.5c0.1,0.1,0.2,0.2,0.3,0.2c0,0,0.1,0,0.1,0
		c0.1,0,0.1,0.1,0.2,0.1c0,0,0.1,0,0.1,0c0.1,0,0.2,0,0.3-0.1c0.2-0.1,0.4-0.2,0.6-0.3c0.2-0.1,0.4-0.2,0.6-0.3
		c0.2-0.1,0.5-0.2,0.7-0.3c0.2-0.1,0.5-0.2,0.8-0.3c0.5-0.2,1-0.4,1.5-0.6c0.5-0.2,1-0.3,1.4-0.5c0.2-0.1,0.4-0.1,0.5-0.2
		c0,0.1,0.1,0.2,0.1,0.4c0.1,0.4,0.2,0.7,0.4,1.1c0.3,0.6,0.8,0.9,1.4,1.1c0.2,0,0.4,0.1,0.6,0.1c1.4,0,2.6-0.4,3.6-1.1
		c0.5-0.4,1-0.7,1.5-1.1c0.5-0.3,1-0.7,1.5-1c0.1,0.3,0.2,0.6,0.4,0.9c0.1,0.3,0.3,0.5,0.5,0.8c0.1,0.2,0.3,0.3,0.4,0.4
		c0.1,0.1,0.3,0.3,0.5,0.4c0.3,0.2,0.7,0.3,1.1,0.4c0.2,0,0.4,0.1,0.6,0.1c0.2,0,0.5,0,0.7,0c0.7-0.1,1.4-0.2,2.1-0.5
		c0.4-0.2,0.9-0.4,1.3-0.5c0.4-0.2,0.8-0.4,1.1-0.6c0.2-0.1,0.4-0.3,0.6-0.4c0,0,0,0.1,0,0.1c0.1,0.1,0.1,0.3,0.2,0.4
		c0.2,0.2,0.3,0.4,0.5,0.6c0.2,0.2,0.3,0.4,0.5,0.6c0.1,0.1,0.3,0.3,0.4,0.4c0.3,0.2,0.5,0.4,0.8,0.4c0.1,0,0.3,0.1,0.4,0.1
		c0.5,0,0.9,0.1,1.2,0.1c0.7-0.1,1.3-0.3,1.9-0.5c0.3-0.1,0.6-0.2,0.8-0.4s0.5-0.3,0.7-0.5c0.9-0.7,1.7-1.4,2.4-2
		c0.5-0.5,1-0.9,1.4-1.4c0.2-0.2,0.4-0.4,0.6-0.6c0.2-0.2,0.4-0.4,0.5-0.6c-0.1,0.3-0.2,0.6-0.2,1c-0.1,0.4-0.1,0.7-0.1,1.2
		c0,0.2,0,0.4,0.1,0.6c0.1,0.6,0.4,1.2,0.9,1.7c0.2,0.2,0.4,0.4,0.6,0.6c0.4,0.3,1,0.6,1.6,0.7c0.3,0.1,0.7,0.1,1.1,0.1
		c0.6,0,1.4-0.2,2.2-0.5c0.9-0.3,1.7-0.7,2.5-1.2c0.4-0.3,0.8-0.5,1.1-0.8c0.3-0.3,0.6-0.5,0.9-0.8c0.5-0.5,0.8-1,0.8-1.4
		c-0.1-0.1-0.2-0.1-0.3-0.1c-0.1,0-0.1,0-0.2-0.1c0,0,0,0,0,0c0,0-0.1,0-0.2,0.1c0,0,0,0,0,0c-0.1,0-0.2,0.1-0.4,0.2c0,0,0,0,0,0
		c-0.4,0.2-0.7,0.4-1.1,0.6c-0.3,0.2-0.6,0.4-0.9,0.5c-0.6,0.3-1.1,0.6-1.5,0.8c-0.2,0.1-0.4,0.2-0.6,0.3c-0.4,0.2-0.7,0.3-1.1,0.4
		c-0.2,0-0.3,0-0.4,0c-0.3,0-0.6-0.1-0.9-0.2c-0.2-0.1-0.3-0.1-0.5-0.2c-0.2-0.1-0.3-0.2-0.5-0.3c-0.2-0.1-0.3-0.3-0.4-0.4
		c-0.1-0.1-0.2-0.3-0.2-0.5c-0.1-0.2-0.1-0.3-0.1-0.5c0-0.2,0-0.4,0.1-0.5c0.4-0.9,0.9-1.8,1.3-2.6c1.4-2.5,2.8-4.9,4.4-7
		c2.1-2.8,4.2-5.8,6.2-8.8c0.4-0.6,0.8-1.2,1.2-1.8c0.7-1.1,1.4-2.1,2-3c0.3-0.4,0.6-0.8,0.8-1.2c0.8-1.1,1.3-2,1.7-2.7
		c0.1-0.2,0.2-0.4,0.3-0.6h0.1c0-0.1,0.1-0.2,0.1-0.3c0.1-0.2,0.1-0.3,0.1-0.4c0,0,0-0.1,0-0.1C204,148.9,203.7,148.7,203.1,148.5
		 M70.2,179.4c-0.5,0.1-1.1,0.1-1.6,0.1c-0.8,0-1.2-0.1-1.4-0.3c-0.1,0-0.1-0.1-0.1-0.1c-0.1-0.1-0.2-0.3-0.2-0.4
		c0-0.5,0.2-1,0.5-1.4c0.3-0.5,0.6-0.9,1-1.3c0.2-0.2,0.4-0.4,0.6-0.6c0.2-0.2,0.5-0.4,0.8-0.7c0,0.3,0,0.6,0.1,0.9
		c0.1,0.3,0.2,0.7,0.3,1.1c0.3,0.8,0.8,1.5,1.6,2.1C71.2,179.1,70.7,179.3,70.2,179.4 M75.1,175.1c-0.1,0.4-0.3,0.8-0.5,1.1
		c-0.2,0.3-0.4,0.6-0.7,0.9c-0.2-0.2-0.4-0.4-0.5-0.5c-0.1-0.1-0.2-0.3-0.3-0.4c-0.1-0.2-0.2-0.3-0.2-0.5c-0.1-0.4-0.2-0.8-0.2-1.1
		c0-0.8,0.1-1.5,0.4-2.1c0-0.1,0-0.1,0.1-0.2c0,0,0.1-0.1,0.1-0.2h0.1c0.3-0.1,0.5-0.2,0.6-0.4c0-0.1,0-0.1,0-0.2
		c0-0.3-0.1-0.5-0.3-0.7c-0.2-0.2-0.3-0.4-0.3-0.5c0.2,0,0.3,0,0.5,0.1c0.5,0.1,0.8,0.4,1.1,0.8c0.1,0.1,0.2,0.3,0.2,0.4
		c0.1,0.3,0.2,0.5,0.3,0.8c0,0.1,0,0.3,0,0.4C75.5,173.6,75.4,174.4,75.1,175.1 M120,172.8c-0.5,0.4-1,0.8-1.5,1.1
		c0.3-0.5,0.7-1,1.1-1.5c0.7-1,1.5-2.1,2.4-3.3c0.4-0.6,0.9-1.2,1.3-1.8c1.8-2.4,3.7-4.9,5.7-7.3c2-2.5,4-4.9,6-7.2
		c1.5-1.7,2.9-3.3,4.2-4.7c0.4-0.5,0.9-0.9,1.3-1.3c0,0.1,0,0.2-0.1,0.3c0,0.1-0.1,0.3-0.2,0.5c-0.1,0.5-0.3,1-0.5,1.6
		c-0.4,1.1-0.9,2.2-1.6,3.4c-0.3,0.6-0.7,1.2-1.1,1.8c-0.4,0.6-0.8,1.2-1.3,1.8c-0.9,1.2-1.8,2.4-2.8,3.6c-0.5,0.6-1,1.2-1.5,1.8
		c-2.1,2.4-4.3,4.7-6.6,6.8C123.2,170.2,121.5,171.6,120,172.8 M137.2,180.4c-0.2,0.3-0.5,0.7-0.8,1l-0.5,0.8c-0.3,0.5-0.7,1-1,1.5
		c-0.6,0.9-1.2,1.9-1.9,2.9c-1,1.6-2.1,3.1-3.3,4.7c-0.8,1.1-1.5,2.2-2.3,3.3c-0.4,0.6-0.8,1.1-1.2,1.6c-0.4,0.5-0.8,1-1.3,1.5
		c0,0,0,0-0.1,0.1c-0.7,0.9-1.5,1.7-2.3,2.4c-0.6,0.6-1.2,1-1.5,1.4c-0.1,0.1-0.2,0.2-0.3,0.3c0-0.1,0-0.2,0.1-0.2
		c0.1-0.6,0.3-1.1,0.6-1.8c0.1-0.4,0.3-0.7,0.5-1c0.1-0.2,0.3-0.4,0.4-0.6c0.1-0.1,0.1-0.2,0.2-0.3l1.8-2.7c0.9-1.2,1.7-2.4,2.6-3.5
		c1.3-1.8,2.7-3.5,4-5.1c0.1-0.1,0.2-0.3,0.3-0.4c0.1-0.1,0.2-0.2,0.3-0.3c1.1-1.3,2.1-2.5,3.1-3.5c1.1-1.1,2.1-2.2,3.1-3.1
		C137.6,179.7,137.4,180.1,137.2,180.4 M162.9,174.3c-0.1,0.3-0.3,0.5-0.5,0.8c-0.2,0.3-0.4,0.5-0.6,0.8c-0.2,0.3-0.4,0.5-0.7,0.8
		c-0.3,0.3-0.6,0.5-1,0.7c-0.1,0.1-0.3,0.2-0.4,0.3c-0.5,0.3-1,0.5-1.7,0.8c-0.3,0.1-0.6,0.2-1,0.4c-0.2,0.1-0.4,0.1-0.5,0.2
		c0,0-0.1,0-0.1,0c-0.1,0-0.2,0-0.3,0c0,0-0.1,0-0.1,0c-0.1,0-0.1,0-0.2-0.1c0,0-0.1-0.1-0.1-0.2c0,0,0,0,0-0.1c0-0.1,0-0.2,0.1-0.4
		c0-0.1,0.1-0.3,0.2-0.4c0.1-0.1,0.1-0.2,0.2-0.3c0.4-0.5,0.8-1,1.2-1.5c0.2-0.2,0.4-0.4,0.6-0.6c0.4-0.4,0.7-0.7,1.1-1
		c0.2-0.2,0.4-0.3,0.6-0.5c0.2-0.1,0.4-0.3,0.5-0.4c0.2-0.1,0.3-0.2,0.5-0.3c1-0.5,1.9-0.8,2.6-1c0.2,0,0.4-0.1,0.6-0.1
		c-0.2,0.3-0.4,0.6-0.6,0.9C163.2,173.7,163,174,162.9,174.3 M183.2,173.3c-0.8,0.9-1.4,1.6-2,2.3c-0.6,0.6-1.1,1.2-1.5,1.6
		c-0.2,0.3-0.5,0.5-0.7,0.7c-0.2,0.2-0.4,0.4-0.6,0.6c-0.7,0.3-1.3,0.6-1.8,0.8c-0.5,0.2-1,0.3-1.4,0.3c-0.2,0-0.4,0-0.5-0.1
		c-0.4-0.1-0.6-0.4-0.6-1c0-0.4,0.2-0.8,0.6-1.2c0.1-0.1,0.3-0.3,0.5-0.4c0.6-0.5,1.3-1,2-1.4c0.2-0.1,0.3-0.2,0.5-0.3
		c0.5-0.3,0.9-0.5,1.4-0.8c0.5-0.2,0.9-0.4,1.3-0.6c0.1,0,0.2-0.1,0.3-0.1c0.2-0.1,0.4-0.2,0.6-0.3c0.2-0.1,0.4-0.2,0.5-0.2
		c0.1,0,0.2-0.1,0.2-0.1c0.8-0.3,1.4-0.5,1.8-0.6C183.7,172.7,183.5,173,183.2,173.3"/>
</g>
<g>
	<defs>
		<path id="SVGID_3_" d="M26.1,234.4V38c0-6.6,5.4-11.9,11.9-11.9h196.3c6.6,0,11.9,5.4,11.9,11.9v196.3c0,6.6-5.4,11.9-11.9,11.9
			l-35.7,0l-9.3,0.5c7.2-4.8,19.9-15.4,35.2-37.5l7.9,5.2c0.5,0.3,1.2,0.4,1.7,0c0.5-0.3,0.8-0.9,0.8-1.5l-3.2-40.9
			c0-0.5-0.3-1-0.8-1.3c-0.5-0.3-1-0.3-1.5-0.1l-34,15.9c-0.6,0.3-0.9,0.8-0.9,1.4c0,0.6,0.3,1.2,0.8,1.5l8.5,4.9
			c-1.7,3.5-7.5,13.6-21.8,25.3c-21.1,17.2-48.1,26.7-76.1,26.7H38C31.5,246.3,26.1,240.9,26.1,234.4 M38,22.8
			c-8.4,0-15.2,6.8-15.2,15.2v196.3c0,8.4,6.8,15.2,15.2,15.2h67.8c28.7,0,56.5-9.7,78.2-27.4c18.3-14.9,23.2-27.4,23.4-27.9
			c0.3-0.8,0-1.6-0.7-2l-7-4.1l29-13.5l2.8,35.2l-6.4-4.2c-0.8-0.5-1.8-0.3-2.3,0.4c-23.3,34.1-40.8,41.1-41,41.2
			c-0.8,0.3-1.2,1.1-1,1.9c0.2,0.8,0.8,1.3,1.6,1.3c0,0,0.1,0,0.1,0l16.2-0.8h35.7c8.4,0,15.2-6.8,15.2-15.2V38
			c0-8.4-6.8-15.2-15.2-15.2H38z"/>
	</defs>
	<clipPath id="SVGID_4_">
		<use xlink:href="#SVGID_3_"  style="overflow:visible;"/>
	</clipPath>
	
		<linearGradient id="SVGID_5_" gradientUnits="userSpaceOnUse" x1="-17.0034" y1="335.8246" x2="-16.0034" y2="335.8246" gradientTransform="matrix(-14.1988 -80.5256 -80.5256 14.1988 27010.8789 -5941.0503)">
		<stop  offset="0" style="stop-color:#65EF97"/>
		<stop  offset="2.460068e-03" style="stop-color:#61EF9C"/>
		<stop  offset="5.334781e-03" style="stop-color:#55EFAA"/>
		<stop  offset="8.405106e-03" style="stop-color:#42EEC1"/>
		<stop  offset="1.117320e-02" style="stop-color:#2BEEDD"/>
		<stop  offset="1" style="stop-color:#2BEEDD"/>
	</linearGradient>
	<polygon class="st1" points="29.7,289.2 -16.1,29.7 368.9,-16 288.5,243.5 	"/>
</g>
<g>
	<defs>
		<path id="SVGID_6_" d="M3.6,241.8V30.6c0-14.9,12.1-26.9,26.9-26.9h211.3c14.9,0,26.9,12.1,26.9,26.9v211.3
			c0,14.9-12.1,26.9-26.9,26.9H30.6C15.7,268.8,3.6,256.7,3.6,241.8 M30.6,0C13.7,0,0,13.7,0,30.6v211.3c0,16.8,13.7,30.6,30.6,30.6
			h211.3c16.9,0,30.6-13.7,30.6-30.6V30.6c0-16.9-13.7-30.6-30.6-30.6H30.6z"/>
	</defs>
	<clipPath id="SVGID_7_">
		<use xlink:href="#SVGID_6_"  style="overflow:visible;"/>
	</clipPath>
	
		<linearGradient id="SVGID_8_" gradientUnits="userSpaceOnUse" x1="-17.0017" y1="336.593" x2="-16.0017" y2="336.593" gradientTransform="matrix(-14.1112 -80.0288 -80.0288 14.1112 26845.8828 -5903.5635)">
		<stop  offset="0" style="stop-color:#65EF97"/>
		<stop  offset="2.626029e-03" style="stop-color:#5CEFA2"/>
		<stop  offset="9.288599e-03" style="stop-color:#4AEFB8"/>
		<stop  offset="1.715443e-02" style="stop-color:#3CEEC8"/>
		<stop  offset="2.688114e-02" style="stop-color:#32EED4"/>
		<stop  offset="4.051548e-02" style="stop-color:#2DEEDB"/>
		<stop  offset="7.821230e-02" style="stop-color:#2BEEDD"/>
		<stop  offset="1" style="stop-color:#2BEEDD"/>
	</linearGradient>
	<polygon class="st2" points="8.2,319 -46.6,8.2 264.2,-46.6 319,264.2 	"/>
</g>
<g>
	<defs>
		<path id="SVGID_9_" d="M77.8,195.2c-1.3,0.4-2.6,0.8-3.8,1.4c-6,2.8-10.8,6.5-11.2,6.9c-2.1-2.2-4-4.3-6-6.3
			c-0.8-0.8-1.7-1.2-2.5,0.1c1.7,2.4,3.2,4.7,4.9,7c1,1.4,0.8,2.4-0.3,3.7c-3.4,4.2-2.8,3.4-6,7.8c-0.7,0.9-1.1,2-1.2,3.1
			c-0.1,0.5,0.6,1.4,1.2,1.6c0.6,0.2,1.7,0,2.1-0.5c2.1-2.4,5.6-5.9,7.6-8c0.5-0.5,1.3-0.5,1.7,0c2.4,2.6,4.6,5,6.9,7.4
			c0.1-0.1,0.1-0.1,0.2-0.2c-1.7-3-3.3-6-5-8.9c-0.6-1-0.6-1.7,0.3-2.5c3.8-3.6,1.1-1.4,4.8-5.1c1.1-1.1,2.6-1.7,3.2-3.6
			c0.4-1.1,2.4-1.6,3.7-2.4c0.3-0.2,0.5-0.6,0.8-1C78.7,195.6,78.3,195.2,77.8,195.2C77.9,195.2,77.9,195.2,77.8,195.2"/>
	</defs>
	<clipPath id="SVGID_10_">
		<use xlink:href="#SVGID_9_"  style="overflow:visible;"/>
	</clipPath>
	
		<linearGradient id="SVGID_11_" gradientUnits="userSpaceOnUse" x1="-16.9644" y1="336.8063" x2="-15.9644" y2="336.8063" gradientTransform="matrix(-12.3959 -70.3004 -70.3004 12.3959 23531.0879 -5168.7061)">
		<stop  offset="0" style="stop-color:#65EF97"/>
		<stop  offset="3.357565e-02" style="stop-color:#5CEFA2"/>
		<stop  offset="0.1188" style="stop-color:#4AEFB8"/>
		<stop  offset="0.2193" style="stop-color:#3CEEC8"/>
		<stop  offset="0.3437" style="stop-color:#32EED4"/>
		<stop  offset="0.518" style="stop-color:#2DEEDB"/>
		<stop  offset="1" style="stop-color:#2BEEDD"/>
	</linearGradient>
	<polygon class="st3" points="52.5,225.2 47.3,195.9 78.2,190.5 83.4,219.8 	"/>
</g>
<g>
	<defs>
		<path id="SVGID_12_" d="M36.8,37.1c-0.4,0.7-0.1,1.6,0.6,1.9c6,3.3,18.2,9.9,29.4,16c10.6,5.8,20.6,11.2,23.3,12.7
			c0.3,0.1,0.4,0.6,0.2,1c-3.1,6.2-13.3,26-14,27c-0.1,0.2-0.2,0.3-0.7,0c-4-2.1-20.7-11-34.6-18.3l-1.7-0.9
			c-0.7-0.4-1.6-0.1-1.9,0.6c-0.4,0.7-0.1,1.6,0.6,1.9l1.7,0.9c13.9,7.4,30.7,16.3,34.6,18.3c0.6,0.3,1.3,0.5,1.8,0.5
			c0.9,0,1.8-0.4,2.4-1.3c0.7-0.9,12.1-23.1,14.3-27.5c0.9-1.7,0.3-3.9-1.4-4.8c-2.8-1.5-12.7-6.9-23.3-12.7
			c-11.2-6.1-23.3-12.7-29.4-16c-0.2-0.1-0.4-0.2-0.7-0.2C37.6,36.4,37.1,36.7,36.8,37.1"/>
	</defs>
	<clipPath id="SVGID_13_">
		<use xlink:href="#SVGID_12_"  style="overflow:visible;"/>
	</clipPath>
	
		<linearGradient id="SVGID_14_" gradientUnits="userSpaceOnUse" x1="-17.4016" y1="336.6885" x2="-16.4016" y2="336.6885" gradientTransform="matrix(6.0629 -76.3928 -76.3928 -6.0629 25880.8359 909.5223)">
		<stop  offset="0" style="stop-color:#65EF97"/>
		<stop  offset="0.2198" style="stop-color:#51EFAF"/>
		<stop  offset="0.5165" style="stop-color:#3CEEC8"/>
		<stop  offset="0.7855" style="stop-color:#2FEED8"/>
		<stop  offset="1" style="stop-color:#2BEEDD"/>
	</linearGradient>
	<polygon class="st4" points="31.5,98.4 36.8,31.9 98.6,36.8 93.3,103.3 	"/>
</g>
<g>
	<defs>
		<path id="SVGID_15_" d="M233.9,36.5c-5,2.9-15.3,8.8-25.4,14.6c-12,6.9-23.3,13.4-26.4,15.1c-0.8,0.4-1.8,1.1-2.1,2.3
			c-0.2,0.9,0.1,1.8,0.8,2.7c2.5,3.4,12.3,21.2,14.7,26c0.4,0.8,1.1,1.4,2,1.7c0.4,0.1,0.7,0.2,1.1,0.2c0.6,0,1.2-0.1,1.7-0.4
			c0.7-0.4,1.3-0.7,2-1.1l0.7-0.4c2.7-1.5,18.7-9.9,32.8-17.3c0.7-0.4,1-1.2,0.6-1.9c-0.4-0.7-1.2-1-1.9-0.6
			c-14.8,7.8-30.1,15.8-32.9,17.4l-0.7,0.4c-0.6,0.4-1.3,0.7-1.9,1.1c-0.2,0.1-0.4,0.1-0.6,0.1c-0.1,0-0.2-0.1-0.3-0.2
			c-2.5-5.1-12.3-22.9-14.9-26.5c-0.2-0.3-0.2-0.4-0.3-0.4c0.1-0.1,0.2-0.2,0.7-0.5c3-1.7,14.4-8.2,26.4-15.1
			c10.1-5.8,20.3-11.7,25.4-14.6c0.7-0.4,0.9-1.3,0.5-2c-0.3-0.5-0.7-0.7-1.2-0.7C234.3,36.3,234.1,36.3,233.9,36.5"/>
	</defs>
	<clipPath id="SVGID_16_">
		<use xlink:href="#SVGID_15_"  style="overflow:visible;"/>
	</clipPath>
	
		<linearGradient id="SVGID_17_" gradientUnits="userSpaceOnUse" x1="-17.4016" y1="336.711" x2="-16.4016" y2="336.711" gradientTransform="matrix(6.0629 -76.3928 -76.3928 -6.0629 26024.9121 920.9568)">
		<stop  offset="0" style="stop-color:#65EF97"/>
		<stop  offset="0.2198" style="stop-color:#51EFAF"/>
		<stop  offset="0.5165" style="stop-color:#3CEEC8"/>
		<stop  offset="0.7855" style="stop-color:#2FEED8"/>
		<stop  offset="1" style="stop-color:#2BEEDD"/>
	</linearGradient>
	<polygon class="st5" points="174.9,98.8 180.2,31.8 241.7,36.7 236.4,103.6 	"/>
</g>
<g>
	<defs>
		<path id="SVGID_18_" d="M137.3,125.5c0.6-2,1.3-3.9,2-6l0.4,0.3c0.3,0.2,0.5,0.4,0.8,0.6c0.7,0.5,1.3,1.1,1.8,1.7
			c0.7,0.7,0.6,1.6,0.5,2c-0.2,0.9-0.8,1.8-1.6,2.2v0c-0.2,0.1-0.5,0.1-0.8,0.1C139.4,126.5,137.9,126.1,137.3,125.5 M130.9,127.8
			c-1.4-0.2-2.4-1.3-2.5-2.7c0-0.4,0-0.7,0.1-1.1c1-3,1.9-6.1,3-9.1c0.4-1.2,1.5-2,2.7-2c0,0,0,0,0.1,0c0.6,0.1,1.1,0.4,1.6,0.7
			c0.5,0.4,0.9,0.9,1.2,1.4c0.1,0.3,0.1,0.6,0.1,0.9c0,0,0,0.1,0,0.1c0,0.1,0,0.3-0.1,0.4l-0.6,2c-0.8,2.4-1.6,5-2.5,7.4
			c-0.4,1.1-1.5,1.8-2.6,1.8C131.2,127.9,131,127.8,130.9,127.8 M120.7,124c-1.6-0.3-2.6-1.6-2.6-3.4l0-0.1c0-0.2,0.1-0.6,0.2-0.9
			c1-3,1.9-6,3-9c0.7-2,2.4-2.9,4.1-2.3c0.3,0.1,0.6,0.2,0.8,0.4c0.2,0.1,0.4,0.3,0.6,0.5c0.8,0.8,1,2.1,0.5,3.5l-0.5,1.6
			c-0.8,2.5-1.6,5-2.5,7.6c-0.5,1.4-1.7,2.2-3,2.2C121.1,124.1,120.9,124.1,120.7,124 M110.1,116.3c-0.5-0.7-0.7-1.5-0.5-2.4
			c0.5-1.8,1.1-3.6,1.9-5.9c0.4-1.1,1.5-1.8,2.6-1.8c0.3,0,0.5,0,0.8,0.1c1.5,0.4,2.4,1.8,2.1,3.2c-0.5,2.1-1.3,4.3-2.1,6.5
			c-0.5,1.2-1.6,1.4-2.1,1.5C111.7,117.4,110.7,117.1,110.1,116.3 M101.6,111.8c-1.4-0.6-2.1-1.9-1.8-3.2c0.2-0.7,0.4-1.5,0.7-2.2
			c0.4-0.9,1.3-1.6,2.3-1.9c0.2,0,0.4,0,0.6,0c0.8,0,1.6,0.2,2.2,0.6c0.4,0.3,0.7,0.7,0.9,1.2c0.3,0.9,0.1,1.8-0.1,2.5
			c-0.3,0.7-0.6,1.5-1,2.3c0,0,0,0,0,0c-0.4,0.7-1.4,1.1-2.4,1.1C102.5,112,102,112,101.6,111.8 M108.2,75.6
			c2.4-0.8,4.9-1.6,7.3-2.5c2.4-0.8,4.8-1.6,7.2-2.4c0.1-0.1,0.3-0.1,0.4-0.1l-1.1,0.8c-3,2.3-6.1,4.5-9.1,6.8
			c-2.1,1.5-3.3,3.6-3.3,5.8c0,0.4,0,0.8,0.1,1.1c0,0.1,0,0.3,0.1,0.4c0.2,1.1,0.7,2.1,1.4,3c0.5,0.7,1,1.3,1.4,1.7
			c1.7,1.5,3.6,2.2,5.6,2.1c1.5,0.1,3-0.2,4.6-0.8c2.7-1.1,5.4-2.3,8.1-3.5c1.1-0.5,2.1-0.9,3.2-1.4l1.2-0.5
			c1.6-0.7,3.1-1.4,4.7-2.1c0.5-0.2,0.7-0.2,1.2,0.1c4.6,3.5,9.2,7.1,13.9,10.6c4.5,3.5,9.1,7,13.6,10.5l6.3,4.8
			c0.9,1,0.9,2.3,0,3.4c-1,1.3-2.6,1.5-4.1,0.4c-6.1-4.7-12.3-9.4-18.4-14.1l-9.2-7l-0.1-0.1c-0.3-0.2-0.8-0.7-1.4-0.7
			c-1.1-0.1-2,0.2-2.4,0.9c-0.8,1-0.2,2.4-0.1,2.7c0.3,0.6,0.8,1,1.1,1.2l23.4,17.9c1,0.8,1.4,1.7,1.1,2.8c-0.3,1.2-1,1.9-2.2,2.2
			c-0.8,0.2-1.5-0.1-2.4-0.8c-5.1-3.9-10.2-7.8-15.3-11.7l-8-6.2c-0.4-0.3-1.2-1-2.3-0.8c-0.4,0.1-1.1,0.3-1.6,1
			c-0.5,0.7-1.1,2.2,0.9,3.8l18.5,14.2l0.3,0.2c0.2,0.2,0.5,0.3,0.7,0.5c1.1,1,1.2,2.5,0.3,3.7c-0.9,1.2-2.4,1.5-3.5,0.7
			c-2.6-1.9-5.2-3.9-7.7-5.9c-0.4-0.3-0.8-0.7-1.3-1c-0.2-0.2-0.4-0.3-0.6-0.5c0,0,0-0.1,0-0.1c-0.1-0.9-0.3-1.8-0.7-2.5
			c-0.7-2-2.3-3.5-4.5-3.9c-0.2,0-0.4-0.1-0.6-0.1c-0.7-0.1-1.5-0.1-2.2,0c-0.7,0.1-1.2-0.1-1.8-1c-0.5-0.7-1-1.3-1.5-1.8
			c-0.3-0.4-0.7-0.7-1.1-1c-1-0.7-2-1.1-3-1.3c-1.6-0.2-3.2,0.3-5,1.4c-1.2-1.8-2.9-2.9-4.9-3.3c-2-0.3-3.9,0.2-5.6,1.4
			c-0.6-0.9-1.4-1.6-2.1-2.1c-0.7-0.5-1.5-0.9-2.4-1.1c-0.8-0.2-1.7-0.1-2.5,0.1c-1.7,0.2-3.7,1.1-5.1,3.5
			c-4.1-2.3-8.2-4.5-12.3-6.8c-0.1,0-0.1-0.1-0.2-0.1c0-0.1,0.1-0.1,0.1-0.2c4.4-8.1,8.7-16.2,13.1-24.3c0.1-0.2,0.2-0.3,0.2-0.3
			c0.1,0,0.2,0.1,0.4,0.1l1.1,0.4c1.4,0.5,2.9,1,4.3,1.6c0.7,0.3,1.5,0.4,2.3,0.4C106.8,75.9,107.5,75.8,108.2,75.6 M114.3,87.6
			c-0.3-0.3-0.6-0.6-0.9-0.9c-0.4-0.6-0.7-1.2-0.9-1.7c0-0.1,0-0.2-0.1-0.3c0.3-2.2,0.9-2.9,1.6-3.4l1.6-1.2c2.9-2.2,5.4-4,9.1-6.4
			c3.6-2.3,7.4-4.1,11.7-5.6c1-0.3,1.9-0.7,2.9-1c1.6-0.5,3.2-1.1,4.8-1.7c0.7-0.3,1.4-0.2,2.1,0.1c3,1.4,6.3,3.4,9.4,5.3
			c3.2,1.9,6.4,3.9,9.5,5.3c1.6,0.8,3.2,0.8,4.8,0.1c1.3-0.6,2.6-1.1,3.9-1.6l1.2-0.5c0.2-0.1,0.3-0.1,0.3-0.1
			c0,0.1,0.1,0.1,0.2,0.3c4.6,8,9.2,16.1,13.8,24.1c0.1,0.1,0.1,0.2,0.1,0.2c-0.1,0-0.1,0.1-0.2,0.2c-4,3-8,6-12,9
			c-0.2,0.1-0.3,0.2-0.3,0.2c-0.1,0-0.2-0.1-0.5-0.3c-0.3-0.3-0.6-0.6-0.9-0.8l-10.5-8.1c-2.9-2.2-5.7-4.4-8.6-6.6
			c-4.7-3.6-9.4-7.2-14-10.9c-1.5-1.1-2.9-1.3-4.6-0.6c-5.9,2.6-11.9,5.2-17.9,7.8c-0.7,0.3-1.4,0.5-2.1,0.5
			C116.9,89.2,115.6,88.6,114.3,87.6 M143.4,62.8c-1.6,0.6-3.2,1.1-4.8,1.6c-1,0.3-2,0.7-2.9,1c-2.8,1-5.4,2-7.8,3.3
			c-0.2-0.3-0.4-0.5-0.7-0.6c-1.9-0.7-3.6-0.8-5.3-0.2c-2.4,0.8-4.8,1.6-7.2,2.4c-2.4,0.8-4.9,1.6-7.3,2.5c-0.9,0.3-1.6,0.3-2.4,0
			c-1.4-0.6-2.9-1.1-4.4-1.6l-1-0.4c-2-0.7-3.1-0.3-4.1,1.5c-4.4,8.1-8.7,16.2-13.1,24.3c-1,1.9-0.7,3.1,1.2,4.1
			c4.2,2.3,8.3,4.6,12.5,7c0.3,0.2,0.6,0.3,0.9,0.4l0.1,0c-0.5,2.6,1,5.2,3.5,6.3c2.2,0.9,4.6,0.5,6.2-0.8c-0.3,1.6,0.1,3.2,1.1,4.4
			c1.1,1.5,3,2.3,5,2.3c0,0,0.1,0,0.1,0c0.9,0,1.7-0.3,2.4-0.7c0,0.1-0.1,0.3-0.1,0.4l0,0.2c0,0.1,0,0.2,0,0.3c0,3.2,2,5.8,5,6.3
			c2,0.4,4-0.3,5.3-1.7c0,0,0,0.1,0,0.1c0.2,2.7,2.2,4.9,4.9,5.3c0.3,0,0.6,0.1,0.9,0.1c1.9,0,3.7-1,4.7-2.5
			c1.9,1.2,4.8,1.6,6.5,0.8c1.6-0.8,2.8-2.4,3.1-4.2c0-0.1,0-0.1,0-0.2c0.9,0.7,1.7,1.3,2.6,1.9c2.3,1.7,5.6,1.1,7.4-1.3
			c1.3-1.7,1.5-3.9,0.7-5.7c0.6,0.5,1.3,1,1.9,1.4c1.6,1.2,3.2,1.6,4.8,1.3c2.3-0.5,3.9-2,4.4-4.3c0.3-1.2,0.2-2.3-0.2-3.3
			c0.6,0.4,1.2,0.9,1.8,1.3c2.7,2.1,6.1,1.7,8.1-0.9c1-1.3,1.4-2.8,1.2-4.3c0.3-0.1,0.7-0.3,1-0.6c4-3,8-6,12-9c0,0,0,0,0,0
			c1.6-1.2,1.8-2.4,0.8-4.1c-4.6-8-9.2-16.1-13.8-24.1c-1-1.7-2.2-2.1-4-1.4l-1.2,0.5c-1.3,0.5-2.7,1.1-4.1,1.7
			c-0.8,0.4-1.5,0.4-2.4-0.1c-3-1.4-6.2-3.3-9.3-5.2c-3.2-1.9-6.6-3.9-9.7-5.4c-0.8-0.4-1.7-0.6-2.5-0.6
			C144.6,62.5,144,62.6,143.4,62.8"/>
	</defs>
	<clipPath id="SVGID_19_">
		<use xlink:href="#SVGID_18_"  style="overflow:visible;"/>
	</clipPath>
	
		<linearGradient id="SVGID_20_" gradientUnits="userSpaceOnUse" x1="-17.4016" y1="336.7077" x2="-16.4016" y2="336.7077" gradientTransform="matrix(6.0629 -76.3928 -76.3928 -6.0629 25956.3301 915.5138)">
		<stop  offset="0" style="stop-color:#65EF97"/>
		<stop  offset="0.2198" style="stop-color:#51EFAF"/>
		<stop  offset="0.5165" style="stop-color:#3CEEC8"/>
		<stop  offset="0.7855" style="stop-color:#2FEED8"/>
		<stop  offset="1" style="stop-color:#2BEEDD"/>
	</linearGradient>
	<polygon class="st6" points="75.9,130.3 82,53.7 198.6,62.9 192.5,139.5 	"/>
</g>
<g>
	<defs>
		<path id="SVGID_21_" d="M38,22.8v3.3h196.3c6.6,0,11.9,5.4,11.9,11.9v196.3c0,6.6-5.4,11.9-11.9,11.9l-35.7,0l-9.3,0.5
			c7.2-4.8,19.9-15.4,35.2-37.5l7.9,5.2c0.5,0.3,1.2,0.4,1.7,0c0.5-0.3,0.8-0.9,0.8-1.5l-3.2-40.9c0-0.5-0.3-1-0.8-1.3
			c-0.5-0.3-1-0.3-1.5-0.1l-34,15.9c-0.6,0.3-0.9,0.8-0.9,1.4c0,0.6,0.3,1.2,0.8,1.5l8.5,4.9c-1.7,3.5-7.5,13.6-21.8,25.3
			c-21.1,17.2-48.1,26.7-76.1,26.7H38c-6.6,0-11.9-5.4-11.9-11.9h-3.3c0,8.4,6.8,15.2,15.2,15.2h67.8c28.7,0,56.5-9.7,78.2-27.4
			c18.3-14.9,23.2-27.4,23.4-27.9c0.3-0.8,0-1.6-0.7-2l-7-4.1l29-13.5l2.8,35.2l-6.4-4.2c-0.8-0.5-1.8-0.3-2.3,0.4
			c-23.3,34.1-40.8,41.1-41,41.2c-0.8,0.3-1.2,1.1-1,1.9c0.2,0.8,0.8,1.3,1.6,1.3c0,0,0.1,0,0.1,0l16.2-0.8h35.7
			c8.4,0,15.2-6.8,15.2-15.2V38c0-8.4-6.8-15.2-15.2-15.2H38z"/>
	</defs>
	<clipPath id="SVGID_22_">
		<use xlink:href="#SVGID_21_"  style="overflow:visible;"/>
	</clipPath>
	<defs>
		<filter id="Adobe_OpacityMaskFilter" filterUnits="userSpaceOnUse" x="-16.1" y="-16" width="385" height="305.1">
			<feColorMatrix  type="matrix" values="1 0 0 0 0  0 1 0 0 0  0 0 1 0 0  0 0 0 1 0"/>
		</filter>
	</defs>
	<mask maskUnits="userSpaceOnUse" x="-16.1" y="-16" width="385" height="305.1" id="SVGID_23_">
		<g class="st7">
			
				<linearGradient id="SVGID_24_" gradientUnits="userSpaceOnUse" x1="-17.2713" y1="335.0648" x2="-16.2713" y2="335.0648" gradientTransform="matrix(-14.186 -80.4529 -80.4529 14.186 26986.7539 -5935.4502)">
				<stop  offset="0" style="stop-color:#FFFFFF"/>
				<stop  offset="0.3502" style="stop-color:#FFFFFF"/>
				<stop  offset="0.4078" style="stop-color:#FFFFFF"/>
				<stop  offset="0.4422" style="stop-color:#FDFDFD"/>
				<stop  offset="0.4545" style="stop-color:#F6F6F6"/>
				<stop  offset="0.4634" style="stop-color:#EBEBEB"/>
				<stop  offset="0.4705" style="stop-color:#DADADA"/>
				<stop  offset="0.4766" style="stop-color:#C4C4C4"/>
				<stop  offset="0.482" style="stop-color:#A8A8A8"/>
				<stop  offset="0.4869" style="stop-color:#888888"/>
				<stop  offset="0.4914" style="stop-color:#626262"/>
				<stop  offset="0.4956" style="stop-color:#373737"/>
				<stop  offset="0.4993" style="stop-color:#090909"/>
				<stop  offset="0.5" style="stop-color:#000000"/>
				<stop  offset="1" style="stop-color:#000000"/>
			</linearGradient>
			<polygon class="st8" points="155.8,289.2 110.1,29.7 368.9,-16 414.7,243.5 			"/>
		</g>
	</mask>
	
		<linearGradient id="SVGID_25_" gradientUnits="userSpaceOnUse" x1="-17.0032" y1="335.8253" x2="-16.0032" y2="335.8253" gradientTransform="matrix(-14.186 -80.4529 -80.4529 14.186 26986.7559 -5935.4512)">
		<stop  offset="0" style="stop-color:#65EF97"/>
		<stop  offset="0.4078" style="stop-color:#65EF97"/>
		<stop  offset="0.4522" style="stop-color:#63EF99"/>
		<stop  offset="0.4683" style="stop-color:#5EEFA0"/>
		<stop  offset="0.4798" style="stop-color:#54EFAC"/>
		<stop  offset="0.4891" style="stop-color:#46EEBC"/>
		<stop  offset="0.4969" style="stop-color:#34EED2"/>
		<stop  offset="0.5" style="stop-color:#2BEEDD"/>
		<stop  offset="1" style="stop-color:#2BEEDD"/>
	</linearGradient>
	<polygon class="st9" points="29.7,289.2 -16.1,29.7 368.9,-16 288.5,243.5 	"/>
</g>
<g>
	<defs>
		<path id="SVGID_26_" d="M30.6,0v3.6h211.3c14.9,0,26.9,12.1,26.9,26.9v211.3c0,14.9-12.1,26.9-26.9,26.9H30.6
			c-14.9,0-26.9-12.1-26.9-26.9H0c0,16.8,13.7,30.6,30.6,30.6h211.3c16.9,0,30.6-13.7,30.6-30.6V30.6c0-16.9-13.7-30.6-30.6-30.6
			H30.6z"/>
	</defs>
	<clipPath id="SVGID_27_">
		<use xlink:href="#SVGID_26_"  style="overflow:visible;"/>
	</clipPath>
	<defs>
		<filter id="Adobe_OpacityMaskFilter_1_" filterUnits="userSpaceOnUse" x="-46.6" y="-46.6" width="365.6" height="365.6">
			<feColorMatrix  type="matrix" values="1 0 0 0 0  0 1 0 0 0  0 0 1 0 0  0 0 0 1 0"/>
		</filter>
	</defs>
	<mask maskUnits="userSpaceOnUse" x="-46.6" y="-46.6" width="365.6" height="365.6" id="SVGID_28_">
		<g class="st10">
			
				<linearGradient id="SVGID_29_" gradientUnits="userSpaceOnUse" x1="-17.2713" y1="335.064" x2="-16.2713" y2="335.064" gradientTransform="matrix(-14.0897 -79.9066 -79.9066 14.0897 26805.3066 -5894.105)">
				<stop  offset="0" style="stop-color:#FFFFFF"/>
				<stop  offset="0.3502" style="stop-color:#FFFFFF"/>
				<stop  offset="0.4078" style="stop-color:#FFFFFF"/>
				<stop  offset="0.4422" style="stop-color:#FDFDFD"/>
				<stop  offset="0.4545" style="stop-color:#F6F6F6"/>
				<stop  offset="0.4634" style="stop-color:#EBEBEB"/>
				<stop  offset="0.4705" style="stop-color:#DADADA"/>
				<stop  offset="0.4766" style="stop-color:#C4C4C4"/>
				<stop  offset="0.482" style="stop-color:#A8A8A8"/>
				<stop  offset="0.4869" style="stop-color:#888888"/>
				<stop  offset="0.4914" style="stop-color:#626262"/>
				<stop  offset="0.4956" style="stop-color:#373737"/>
				<stop  offset="0.4993" style="stop-color:#090909"/>
				<stop  offset="0.5" style="stop-color:#000000"/>
				<stop  offset="1" style="stop-color:#000000"/>
			</linearGradient>
			<polygon class="st11" points="134.4,319 79.6,8.2 390.4,-46.6 445.2,264.2 			"/>
		</g>
	</mask>
	
		<linearGradient id="SVGID_30_" gradientUnits="userSpaceOnUse" x1="-17.0013" y1="336.5953" x2="-16.0013" y2="336.5953" gradientTransform="matrix(-14.0897 -79.9066 -79.9066 14.0897 26805.3066 -5894.1055)">
		<stop  offset="0" style="stop-color:#65EF97"/>
		<stop  offset="0.4078" style="stop-color:#65EF97"/>
		<stop  offset="0.4522" style="stop-color:#63EF99"/>
		<stop  offset="0.4683" style="stop-color:#5EEFA0"/>
		<stop  offset="0.4798" style="stop-color:#54EFAC"/>
		<stop  offset="0.4891" style="stop-color:#46EEBC"/>
		<stop  offset="0.4969" style="stop-color:#34EED2"/>
		<stop  offset="0.5" style="stop-color:#2BEEDD"/>
		<stop  offset="1" style="stop-color:#2BEEDD"/>
	</linearGradient>
	<polygon class="st12" points="8.2,319 -46.6,8.2 264.2,-46.6 319,264.2 	"/>
</g>
<g>
	<defs>
		<path id="SVGID_31_" d="M77.8,195.2c-1.3,0.4-2.6,0.8-3.8,1.4c-6,2.8-10.8,6.5-11.2,6.9c-2.1-2.2-4-4.3-6-6.3
			c-0.8-0.8-1.7-1.2-2.5,0.1c1.7,2.4,3.2,4.7,4.9,7c1,1.4,0.8,2.4-0.3,3.7c-3.4,4.2-2.8,3.4-6,7.8c-0.7,0.9-1.1,2-1.2,3.1
			c-0.1,0.5,0.6,1.4,1.2,1.6c0.6,0.2,1.7,0,2.1-0.5c2.1-2.4,5.6-5.9,7.6-8c0.5-0.5,1.3-0.5,1.7,0c2.4,2.6,4.6,5,6.9,7.4
			c0.1-0.1,0.1-0.1,0.2-0.2c-1.7-3-3.3-6-5-8.9c-0.6-1-0.6-1.7,0.3-2.5c3.8-3.6,1.1-1.4,4.8-5.1c1.1-1.1,2.6-1.7,3.2-3.6
			c0.4-1.1,2.4-1.6,3.7-2.4c0.3-0.2,0.5-0.6,0.8-1C78.7,195.6,78.3,195.2,77.8,195.2C77.9,195.2,77.9,195.2,77.8,195.2"/>
	</defs>
	<clipPath id="SVGID_32_">
		<use xlink:href="#SVGID_31_"  style="overflow:visible;"/>
	</clipPath>
	<defs>
		<filter id="Adobe_OpacityMaskFilter_2_" filterUnits="userSpaceOnUse" x="47.3" y="190.5" width="36.1" height="34.8">
			<feColorMatrix  type="matrix" values="1 0 0 0 0  0 1 0 0 0  0 0 1 0 0  0 0 0 1 0"/>
		</filter>
	</defs>
	<mask maskUnits="userSpaceOnUse" x="47.3" y="190.5" width="36.1" height="34.8" id="SVGID_33_">
		<g class="st13">
			
				<linearGradient id="SVGID_34_" gradientUnits="userSpaceOnUse" x1="-16.9644" y1="336.8063" x2="-15.9644" y2="336.8063" gradientTransform="matrix(-12.3959 -70.3004 -70.3004 12.3959 23531.0859 -5168.7056)">
				<stop  offset="0" style="stop-color:#FFFFFF"/>
				<stop  offset="0.3502" style="stop-color:#FFFFFF"/>
				<stop  offset="0.4078" style="stop-color:#FFFFFF"/>
				<stop  offset="0.4422" style="stop-color:#FDFDFD"/>
				<stop  offset="0.4545" style="stop-color:#F6F6F6"/>
				<stop  offset="0.4634" style="stop-color:#EBEBEB"/>
				<stop  offset="0.4705" style="stop-color:#DADADA"/>
				<stop  offset="0.4766" style="stop-color:#C4C4C4"/>
				<stop  offset="0.482" style="stop-color:#A8A8A8"/>
				<stop  offset="0.4869" style="stop-color:#888888"/>
				<stop  offset="0.4914" style="stop-color:#626262"/>
				<stop  offset="0.4956" style="stop-color:#373737"/>
				<stop  offset="0.4993" style="stop-color:#090909"/>
				<stop  offset="0.5" style="stop-color:#000000"/>
				<stop  offset="1" style="stop-color:#000000"/>
			</linearGradient>
			<polygon class="st14" points="52.5,225.2 47.3,195.9 78.2,190.5 83.4,219.8 			"/>
		</g>
	</mask>
	
		<linearGradient id="SVGID_35_" gradientUnits="userSpaceOnUse" x1="-16.9644" y1="336.8063" x2="-15.9644" y2="336.8063" gradientTransform="matrix(-12.3959 -70.3004 -70.3004 12.3959 23531.0879 -5168.7061)">
		<stop  offset="0" style="stop-color:#65EF97"/>
		<stop  offset="0.4078" style="stop-color:#65EF97"/>
		<stop  offset="0.4522" style="stop-color:#63EF99"/>
		<stop  offset="0.4683" style="stop-color:#5EEFA0"/>
		<stop  offset="0.4798" style="stop-color:#54EFAC"/>
		<stop  offset="0.4891" style="stop-color:#46EEBC"/>
		<stop  offset="0.4969" style="stop-color:#34EED2"/>
		<stop  offset="0.5" style="stop-color:#2BEEDD"/>
		<stop  offset="1" style="stop-color:#2BEEDD"/>
	</linearGradient>
	<polygon class="st15" points="52.5,225.2 47.3,195.9 78.2,190.5 83.4,219.8 	"/>
</g>
<rect x="-17.3" y="-62.7" class="st16" width="559.3" height="397.7"/>
<line class="st16" x1="649.6" y1="176.3" x2="274.7" y2="176.3"/>
<line class="st16" x1="274.7" y1="111" x2="649.6" y2="111"/>
<polyline class="st16" points="880.7,161.9 505.8,161.9 505.8,96.7 880.7,96.7 "/>
</svg>
