<svg xmlns="http://www.w3.org/2000/svg" width="39" height="40.718" viewBox="0 0 39 40.718">
  <g id="Group_6346" data-name="Group 6346" transform="translate(-40 -1000.342)">
    <g id="log_out_icn" transform="translate(40 1000.342)">
      <path id="log_out_icn-2" data-name="log_out_icn" d="M12.441,40.718a.852.852,0,0,1-.857-.848V31.5a.857.857,0,0,1,1.714,0v7.523h21l-10.22-4.6a.846.846,0,0,1-.5-.771V7a.846.846,0,0,1,.5-.772L34.125,1.705H13.3V9.262a.857.857,0,0,1-1.714,0V.857a.852.852,0,0,1,.857-.848H38.048a.841.841,0,0,1,.559.1.837.837,0,0,1,.123.131c.015.014.026.028.039.042A.806.806,0,0,1,38.917.5a.821.821,0,0,1,.054.21A.839.839,0,0,1,39,.827V39.869a.852.852,0,0,1-.857.848ZM25.292,7.546V33.1l11.994,5.4V2.143ZM8.71,28.637a.84.84,0,0,1,.013-1.2l6.466-6.267H.857a.848.848,0,1,1,0-1.7H15.188L8.723,13.209a.841.841,0,0,1-.013-1.2A.864.864,0,0,1,9.921,12l7.966,7.721a.841.841,0,0,1,0,1.213L9.921,28.651a.861.861,0,0,1-.6.241A.85.85,0,0,1,8.71,28.637Zm19.2-8.332a.848.848,0,1,1,0-1.7h3.391a.848.848,0,1,1,0,1.7Z" transform="translate(0 0)" fill="#037ae0"/>
    </g>
  </g>
</svg>
