<svg id="Layer_x0020_1" xmlns="http://www.w3.org/2000/svg" width="60.651" height="66.548" viewBox="0 0 60.651 66.548">
  <path id="Path_5782" data-name="Path 5782" d="M61.769,87.368a.936.936,0,0,0-.7-1.578H55.116a.938.938,0,0,0-.669,1.611l1.442,1.376H55.9L52.36,99.458l1.121,12.466h8.985l1.22-12.466L60.421,88.777l1.343-1.409Z" transform="translate(-27.695 -45.376)" fill="rgba(255,255,255,0.27)"/>
  <path id="Path_5783" data-name="Path 5783" d="M1.889,92.436S.593,102.58.023,107.079a1.888,1.888,0,0,0,1.9,2.106H22.417L21.187,96.05l2.459-6.408V80.62l-19.609,8.9a3.966,3.966,0,0,0-2.148,2.912Z" transform="translate(-0.009 -42.642)" fill="rgba(255,255,255,0.27)"/>
  <path id="Path_5784" data-name="Path 5784" d="M102.2,107.079l-1.87-14.643a3.972,3.972,0,0,0-2.144-2.912L78.58,80.62v8.575l2.45,6.992-1.314,13H100.3a1.888,1.888,0,0,0,1.9-2.106Z" transform="translate(-41.562 -42.642)" fill="rgba(255,255,255,0.27)"/>
  <path id="Path_5785" data-name="Path 5785" d="M59.258,18.093a3.736,3.736,0,0,1,.363,1.889,9.246,9.246,0,0,1-.226,1.974c-.476,2.172-1.423,3.336-1.776,3.491A1.438,1.438,0,0,0,56.2,26.5c-.518,1.875-2.686,8.009-8.73,8.075-6.045-.066-8.212-6.2-8.73-8.075a1.431,1.431,0,0,0-1.38-1.051h-.038c-.353-.16-1.3-1.319-1.776-3.491a5.906,5.906,0,0,1,.137-3.863,1.431,1.431,0,0,0,1.037-1.541c-.014-.132-.028-.259-.042-.391v-.009s.518-4.773,3.02-5.852c0,0,9.154,5.211,18.69,4.363-.028.6-.075,1.23-.151,1.889a1.431,1.431,0,0,0,1.037,1.541ZM36.224,28.1c1.531,4.622,5.187,9.281,11.227,9.338h.028c6.04-.057,9.7-4.716,11.227-9.338,1.715-.73,2.973-3.175,3.486-5.531.532-2.441.339-4.688-.523-6.012a3.082,3.082,0,0,0-.509-.612c.019-.217.033-.424.047-.631.052-.763.066-1.489.052-2.177,0-.141-.009-.287-.014-.429A9.918,9.918,0,0,0,59.3,6.625a5.743,5.743,0,0,0-1.352-1.14A11.077,11.077,0,0,0,55.456,2.46,10.389,10.389,0,0,0,47.466.072a10.381,10.381,0,0,0-7.981,2.379,11.052,11.052,0,0,0-2.5,3.034,5.938,5.938,0,0,0-1.366,1.159,8.7,8.7,0,0,0-1.8,4.57c-.061.448-.1.914-.127,1.4s-.033.994-.019,1.522c.009.58.042,1.178.1,1.8a3.1,3.1,0,0,0-.514.612c-.857,1.324-1.051,3.571-.518,6.012C33.251,24.924,34.5,27.374,36.224,28.1Z" transform="translate(-17.161 -0.011)" fill="rgba(255,255,255,0.27)"/>
</svg>
