<svg id="Layer_2" data-name="Layer 2" xmlns="http://www.w3.org/2000/svg" width="23.051" height="18.265" viewBox="0 0 23.051 18.265">
  <g id="Layer_2-2" data-name="Layer 2" transform="translate(0)">
    <path id="Path_6521" data-name="Path 6521" d="M21.706,0H1.344A1.344,1.344,0,0,0,0,1.344V16.92a1.344,1.344,0,0,0,1.344,1.345H21.706A1.344,1.344,0,0,0,23.05,16.92V1.344A1.344,1.344,0,0,0,21.706,0ZM6.319,1.514a.548.548,0,1,1-.548.548A.548.548,0,0,1,6.319,1.514Zm-2.062,0a.548.548,0,1,1-.387.16.548.548,0,0,1,.387-.16Zm-2.062,0a.548.548,0,1,1-.547.548.548.548,0,0,1,.547-.548ZM15.67,12.863c0,1.1-.894,2.343-4.142,4.087-3.414-1.833-4.161-2.982-4.161-4.087,0-.677.006-5.282.006-5.282A6.145,6.145,0,0,0,11.53,6a6.125,6.125,0,0,0,4.155,1.584S15.67,12.032,15.67,12.863Zm5.5-8.3H1.836a.469.469,0,0,1,0-.937H21.17a.469.469,0,1,1,0,.937Z" transform="translate(0)" fill="#fff"/>
    <path id="Path_6522" data-name="Path 6522" d="M188.678,198.245a.469.469,0,0,0-.677.649l.984,1.031a.469.469,0,0,0,.677,0l3.515-3.678a.469.469,0,1,0-.677-.648l-3.179,3.324Z" transform="translate(-179.065 -186.286)" fill="#037ae0"/>
  </g>
</svg>
