<svg xmlns="http://www.w3.org/2000/svg" width="22.92" height="22.921" viewBox="0 0 22.92 22.921">
  <path id="Exclusion_2" data-name="Exclusion 2" d="M11.449,22.921A11.46,11.46,0,1,1,22.021,7.015a11.459,11.459,0,0,1-2.065,12.136A11.438,11.438,0,0,1,12.6,22.863C12.218,22.9,11.831,22.921,11.449,22.921ZM11.5,5.2a3.752,3.752,0,0,0-1.7,7.094,5.758,5.758,0,0,0-4.051,4.968.425.425,0,0,0,.391.464H16.86a.427.427,0,0,0,.393-.423c0-.014,0-.028,0-.041A5.762,5.762,0,0,0,13.2,12.292,3.751,3.751,0,0,0,11.5,5.2Z" fill="#fff"/>
</svg>
