<svg id="Layer_x0020_1" xmlns="http://www.w3.org/2000/svg" width="54.935" height="75.941" viewBox="0 0 54.935 75.941">
  <path id="Path_5786" data-name="Path 5786" d="M.277,222.11c1.939,1.628,2.371,1.133,5.6,1.118H49.134c3.233.012,3.665.509,5.6-1.118l.157-11.365L54.9,207.7c-.031-6.831.629-14.667-5.893-19.1-2.068-1.408-6.994-3.53-10.051-3.361-2.365,3.905-9.41,27.538-11.453,30.466-1.287-1.852-9.328-25.662-11.335-30.464-3.2-.161-8.047,1.886-10.151,3.38A13.894,13.894,0,0,0,.707,196.1c-.931,3.219-.854,21.942-.434,26.016ZM27.51,205.069c1.09-.841,1.615-2.874,2.045-4.142,1.373-4.068-1.571-8.024.234-10.958,1.194-1.943,1.964-1.756,1.34-4.366-2.1-.87-9.332-1.579-7.069,2.685,1.265,2.383,2.086,1.528,1.648,5.083-.253,2.041-.9,4.616-.524,6.611a23.671,23.671,0,0,0,.947,2.679,4.42,4.42,0,0,0,1.377,2.41Z" transform="translate(0.026 -147.369)" fill="rgba(255,255,255,0.23)" fill-rule="evenodd"/>
  <circle id="Ellipse_85" data-name="Ellipse 85" cx="16.519" cy="16.519" r="16.519" transform="translate(11.126)" fill="rgba(255,255,255,0.23)"/>
</svg>
