<svg id="Layer_x0020_1" xmlns="http://www.w3.org/2000/svg" width="74.136" height="61.143" viewBox="0 0 74.136 61.143">
  <path id="Path_5769" data-name="Path 5769" d="M1321.587,1474.171c.667.034,1.147.07,1.628.081,3.8.09,7.59.169,11.385.263a3.629,3.629,0,0,1,3.789,3.83,3.524,3.524,0,0,1-3.682,3.892c-5.76.281-11.52.583-17.283.8a7.249,7.249,0,0,1-3-.537,3.512,3.512,0,0,1-2.293-3.776,62.016,62.016,0,0,1,3.025-14.724,9.172,9.172,0,0,1,7.96-6.168,2.293,2.293,0,0,1,1.454.44c1.649,1.153,3.247,2.379,4.929,3.626,1.674-1.24,3.308-2.416,4.9-3.647a1.977,1.977,0,0,1,1.908-.46,3.465,3.465,0,0,0,.435.085c5.744.967,8.646,3.941,9.044,9.77.3,4.37.246,8.766.294,13.151.029,2.711-.1,5.423-.061,8.134.054,3.5-1.66,5.351-4.713,5.661a3.3,3.3,0,0,0-.5.147c-.048.608-.1,1.232-.158,1.985h-21.464v-10.892c1.547-.1,3.01-.22,4.476-.285,3.4-.151,6.8-.245,10.2-.427a11.02,11.02,0,0,0,3.332-.518c4.087-1.574,5.25-7.638,2.051-10.627a2.424,2.424,0,0,1-.848-2.038c.042-2.021.025-4.043.007-6.064-.012-1.365-.217-1.617-1.5-1.624q-6.878-.036-13.755,0c-1.18,0-1.524.285-1.538,1.314C1321.562,1468.361,1321.587,1471.167,1321.587,1474.171Z" transform="translate(-1292.236 -1435.632)" fill="rgba(255,255,255,0.29)"/>
  <path id="Path_5770" data-name="Path 5770" d="M23.957,1569.778v10.861H4.85v-3.975c-.754-.188-1.375-.3-1.966-.5A3.852,3.852,0,0,1,.016,1572.3q-.048-9.9.01-19.809a12.311,12.311,0,0,1,.426-2.914c1.168-4.612,4.484-6.333,8.527-6.6a2.384,2.384,0,0,1,1.43.575c1.356,1.057,2.656,2.186,4.082,3.376A41.758,41.758,0,0,0,18,1543.97c1.3-1.346,2.75-1.224,4.434-.913-3.453,4.954-4,10.692-4.956,16.3a23.681,23.681,0,0,0-.341,2.932,6.7,6.7,0,0,0,5.211,7.106c.472.132.955.227,1.6.379Z" transform="translate(0.006 -1519.496)" fill="rgba(255,255,255,0.29)"/>
  <path id="Path_5771" data-name="Path 5771" d="M3424.63,1579.963a4.285,4.285,0,0,1,.462-.365,7.312,7.312,0,0,0,4.059-6.865c.054-3.005.134-6.01.123-9.015-.013-3.6-.152-7.192-.157-10.788,0-3.83-.666-7.434-3.306-10.5a1.983,1.983,0,0,1,2.387.344c1.34,1.153,2.706,2.277,4.155,3.491,1.334-1.106,2.64-2.136,3.882-3.24a2.682,2.682,0,0,1,2.28-.7c4.858.548,7.8,3.481,8.232,8.512.208,2.449.163,4.922.171,7.384.013,3.991-.031,7.983-.038,11.974-.007,3.878-.876,4.964-4.779,5.765v4Z" transform="translate(-3372.783 -1518.835)" fill="rgba(255,255,255,0.29)"/>
  <path id="Path_5772" data-name="Path 5772" d="M1808.556,20.075a9.93,9.93,0,0,1-9.874-10.319,10.043,10.043,0,1,1,9.874,10.319Z" transform="translate(-1771.449 -0.008)" fill="rgba(255,255,255,0.29)"/>
  <path id="Path_5773" data-name="Path 5773" d="M3360.787,268.541a8.607,8.607,0,0,1,8.9-8.667,8.714,8.714,0,0,1,8.568,8.743,8.809,8.809,0,0,1-8.8,8.713A8.7,8.7,0,0,1,3360.787,268.541Z" transform="translate(-3309.907 -255.939)" fill="rgba(255,255,255,0.29)"/>
  <path id="Path_5774" data-name="Path 5774" d="M387.782,259.88a8.663,8.663,0,0,1,8.738,8.713,8.752,8.752,0,1,1-8.738-8.713Z" transform="translate(-373.276 -255.945)" fill="rgba(255,255,255,0.29)"/>
</svg>
