<svg id="Layer_x0020_1" xmlns="http://www.w3.org/2000/svg" width="56.3" height="80.067" viewBox="0 0 56.3 80.067">
  <path id="Path_5775" data-name="Path 5775" d="M56.18,38.621c-1.178-5.36-6.126-10-16.523-14.461h-.015a12.941,12.941,0,0,1-22.973,0h-.015C6.272,28.622,1.295,33.246.131,38.621c-.663,3.093,1.311,16.42,4.006,18.01A9.95,9.95,0,0,0,8.26,57.839L7.848,38.813A4.176,4.176,0,0,1,12,34.616H44.3a4.157,4.157,0,0,1,4.153,4.153l-.412,19.056a10.168,10.168,0,0,0,4.123-1.193c2.769-1.62,4.683-14.918,4.006-18.01Z" transform="translate(-0.002 11.419)" fill="rgba(255,255,255,0.3)"/>
  <path id="Path_5776" data-name="Path 5776" d="M42.207,18C40.97,7.82,33.783,0,25.124,0S9.279,7.834,8.042,18c-1.443.442-2.15,2.43-1.178,6.067.987,3.711,2.651,5.051,4.123,4.654a2.032,2.032,0,0,0,.619-.309c2.3,6.3,7.481,10.721,13.5,10.721a13.53,13.53,0,0,0,10.264-5.066h.118c2.783,0,4.447-.515,5.522-1.635,1.119-1.163,1.59-2.975,1.487-5.964a12.6,12.6,0,0,0,.869-2.386c.972-3.637.25-5.625-1.178-6.067ZM25.124,1.178c8.011,0,14.682,7.3,15.89,16.832a2.856,2.856,0,0,0-1.237.869,20.358,20.358,0,0,0-2.783-8.438c-.1-.177-.221-.353-.324-.53s-.221-.324-.339-.486c-.191-.265-.383-.515-.574-.766-.118-.147-.236-.295-.368-.442q-.221-.265-.442-.486a13.362,13.362,0,0,0-9.822-4.58A13.08,13.08,0,0,0,16.23,6.8l-.029.029c-.265.25-.53.5-.78.78-.162.177-.324.353-.486.545-.147.162-.28.324-.412.5q-.265.331-.53.707c-.147.206-.295.427-.442.648a1.124,1.124,0,0,1-.118.162c-.059.088-.1.191-.162.295a20.287,20.287,0,0,0-2.783,8.438A2.986,2.986,0,0,0,9.25,18.04c1.208-9.528,7.879-16.832,15.9-16.832ZM12.666,25.742a11.5,11.5,0,0,0-.427-3.107c-.015-.074-.044-.133-.059-.206-.015-.177-.029-.339-.044-.515,3.151-1.856,8.011-6.671,14.152-3.49,1.973,1.016,4.992-2.9,6.818-3.667,1.281,2.224,2.445,6.1,4.477,6.1.191,0,.368-.044.545-.059,0,.118.015.236.015.353,0,.412-.029.825-.044,1.237-.029.088-.059.177-.088.28a10.861,10.861,0,0,0-.442,3.225,17.423,17.423,0,0,1-2.827,6.141c-.663-.957-2.253-1.694-4.919-1.929-3.829-.339-4.536.854-4.668,2.386s.368,2.827,4.2,3.166a13.615,13.615,0,0,0,1.517.044A10.866,10.866,0,0,1,25.11,37.39c-5.891,0-10.853-4.919-12.458-11.619ZM40.322,31.75c-.81.839-2.091,1.266-4.168,1.325a18.338,18.338,0,0,0,2.474-4.668,2.031,2.031,0,0,0,.618.309,2.256,2.256,0,0,0,2.268-.81,5.649,5.649,0,0,1-1.208,3.829Z" transform="translate(3.029)" fill="rgba(255,255,255,0.3)"/>
  <path id="Path_5777" data-name="Path 5777" d="M41.145,32.62H8.85A2.143,2.143,0,0,0,6.7,34.77l.5,23.15a2.143,2.143,0,0,0,2.15,2.15H23.223l-.53,1.576c-3.932.177-6.848.766-6.848,1.473,0,.839,4.094,1.532,9.145,1.532s9.145-.677,9.145-1.532c0-.707-2.916-1.311-6.848-1.473l-.53-1.576H40.629a2.143,2.143,0,0,0,2.15-2.15l.5-23.15a2.143,2.143,0,0,0-2.15-2.15ZM38.3,57.139H11.692c-.383,0-.707-.221-.707-.5s.309-.5.707-.5H38.3c.383,0,.707.221.707.5S38.685,57.139,38.3,57.139Z" transform="translate(3.163 15.417)" fill="rgba(255,255,255,0.3)"/>
</svg>
