<svg id="Layer_2" data-name="Layer 2" xmlns="http://www.w3.org/2000/svg" width="23.051" height="27.66" viewBox="0 0 23.051 27.66">
  <g id="Icons">
    <path id="Path_6518" data-name="Path 6518" d="M16.6,14.752a6.454,6.454,0,1,0,6.454,6.454A6.454,6.454,0,0,0,16.6,14.752ZM4.1,16.6c-.552,0-.552,1.383,0,1.383H9.98a7.449,7.449,0,0,1,.874-1.383ZM14.291,13.83H4.1c-.552,0-.552,1.383,0,1.383h8.21A7.331,7.331,0,0,1,14.656,14.1.411.411,0,0,0,14.291,13.83Zm0-2.766H4.1c-.552,0-.552,1.383,0,1.383H14.291C14.906,12.447,14.906,11.064,14.291,11.064Zm0-2.766H4.1c-.552,0-.552,1.383,0,1.383H14.291C14.906,9.681,14.906,8.3,14.291,8.3Zm-10.6,13.83a1.844,1.844,0,0,1-1.844-1.844V6.454H4.61A2.445,2.445,0,0,0,7.376,3.688V1.844h7.376A1.844,1.844,0,0,1,16.6,3.688V13.83a7.321,7.321,0,0,1,1.844.243V3.688A3.688,3.688,0,0,0,14.752,0H7.376C5.287,0,0,4.366,0,6.454v13.83a3.688,3.688,0,0,0,3.688,3.688H9.763a7.359,7.359,0,0,1-.479-1.844Zm12.041,1.844-2.937-2.53,1.1-1.176,1.74,2.033,2.971-3.84,1.48,1.369Z" fill="#fff"/>
  </g>
</svg>
