<svg id="Layer_x0020_1" xmlns="http://www.w3.org/2000/svg" width="70.531" height="62.422" viewBox="0 0 70.531 62.422">
  <path id="Path_5778" data-name="Path 5778" d="M18.57,22.118a12.187,12.187,0,0,1,8.207,3.15,12.06,12.06,0,0,1,1.5-5.375,12.578,12.578,0,0,0-5.809-3.266,8.756,8.756,0,1,0-7.8,0A12.578,12.578,0,0,0,8.86,19.892a12.166,12.166,0,0,1,1.5,5.375,12.187,12.187,0,0,1,8.207-3.15Z" transform="translate(16.637 -0.01)" fill="rgba(255,255,255,0.26)"/>
  <path id="Path_5779" data-name="Path 5779" d="M15.981,29.905a2.411,2.411,0,0,1-.231.347A17.243,17.243,0,0,1,20.489,35.4a24.149,24.149,0,0,1,2.8,7.225H36.355a4.521,4.521,0,0,0,4.479-5.086c-1.156-8.959-5.375-13.583-10.866-15h0a4.675,4.675,0,0,0,.52-.289c.173-.116.347-.2.52-.318s.318-.231.491-.347c.144-.116.318-.26.462-.376a6.6,6.6,0,0,0,.636-.636c.116-.144.231-.26.347-.4a.4.4,0,0,0,.087-.116c.116-.144.2-.289.318-.433A8.8,8.8,0,0,0,26.992,5.948c-.289-.029-.607-.058-.9-.058a7.9,7.9,0,0,0-2.2.289,6.629,6.629,0,0,0-.809.26,2.265,2.265,0,0,1-.4.144A8.809,8.809,0,0,0,18.38,18.837c.144.26.289.52.462.78a10.322,10.322,0,0,0,1.387,1.589c.087.058.144.144.231.2a8.075,8.075,0,0,0,1.763,1.156h0a12.589,12.589,0,0,0-4.364,2.052,12.2,12.2,0,0,1-1.85,5.346Z" transform="translate(29.659 11.103)" fill="rgba(255,255,255,0.26)"/>
  <path id="Path_5780" data-name="Path 5780" d="M18.628,22.517h0a4.675,4.675,0,0,0,.52-.289c.173-.116.347-.2.52-.318s.318-.231.491-.347c.144-.116.318-.26.462-.376a6.6,6.6,0,0,0,.636-.636c.116-.144.231-.26.347-.4a.4.4,0,0,0,.087-.116c.116-.144.2-.289.318-.433A8.789,8.789,0,0,0,18.541,6.767c-.116-.058-.26-.116-.376-.173a6.668,6.668,0,0,0-.809-.289,3.946,3.946,0,0,0-.838-.2l-.433-.087A9.888,9.888,0,0,0,14.755,5.9c-.289,0-.607.029-.9.058a4.527,4.527,0,0,0-.867.144,8.757,8.757,0,0,0-1.243.347,2.265,2.265,0,0,1-.4.144,9.32,9.32,0,0,0-1.821,1.04,3.071,3.071,0,0,0-.318.26,8.8,8.8,0,0,0-3.179,6.762A8.628,8.628,0,0,0,7.559,19.6a4.135,4.135,0,0,0,.318.433.4.4,0,0,1,.087.116,5.031,5.031,0,0,0,.347.4,7.238,7.238,0,0,0,1.1,1.011,7.333,7.333,0,0,0,.983.665,4.676,4.676,0,0,0,.52.289h0c-.52.144-1.04.318-1.532.491a2.237,2.237,0,0,0-.462.2,3.6,3.6,0,0,0-.578.289c-.289.144-.549.289-.809.433a5.421,5.421,0,0,0-.52.347c-.26.173-.52.376-.78.578a5.023,5.023,0,0,0-.433.376,3.722,3.722,0,0,0-.491.462l-.694.694q-.433.477-.867,1.04c-.144.173-.26.376-.4.578a12.871,12.871,0,0,0-.751,1.243q-.26.477-.52,1.04A25.549,25.549,0,0,0,.074,37.6a4.521,4.521,0,0,0,4.479,5.086H17.616a23.85,23.85,0,0,1,2.8-7.225,17.243,17.243,0,0,1,4.739-5.144c-.087-.116-.144-.231-.231-.347a12.577,12.577,0,0,1-1.85-5.346,13.132,13.132,0,0,0-4.364-2.052Z" transform="translate(-0.037 11.121)" fill="rgba(255,255,255,0.26)"/>
  <path id="Path_5781" data-name="Path 5781" d="M25.746,25.488h0a4.675,4.675,0,0,0,.52-.289c.173-.116.347-.2.52-.318s.318-.231.491-.347c.144-.116.318-.26.462-.376a8.819,8.819,0,0,0,2.89-6.5v-.462a8.742,8.742,0,0,0-2.861-6.011,8.31,8.31,0,0,0-.983-.78,3.685,3.685,0,0,0-.722-.433A8.844,8.844,0,0,0,21.874,8.9a8.6,8.6,0,0,0-4.19,1.069c-.26.144-.491.289-.722.433a6.477,6.477,0,0,0-.983.78c-.2.2-.4.376-.607.607a8.31,8.31,0,0,0-.78.983,5.975,5.975,0,0,0-.433.722,8.546,8.546,0,0,0-1.04,3.7v.462a8.991,8.991,0,0,0,.549,3.063A9.088,9.088,0,0,0,15,23.089c.116.144.26.318.376.462a6.6,6.6,0,0,0,.636.636,2.918,2.918,0,0,0,.462.376c.144.116.318.231.491.347a5.027,5.027,0,0,0,.52.318,4.676,4.676,0,0,0,.52.289h0a12.155,12.155,0,0,0-4.45,2.11c-.173.116-.347.26-.491.376a14.793,14.793,0,0,0-3.526,4.422c-.2.376-.376.751-.549,1.127a7.526,7.526,0,0,0-.289.722c-.289.751-.549,1.532-.78,2.37-.029.116-.058.2-.087.318h0a25.076,25.076,0,0,0-.665,3.555v.058a4.5,4.5,0,0,0,4.479,5.057H32.22A4.521,4.521,0,0,0,36.7,40.544c-1.156-8.959-5.4-13.583-10.866-15Z" transform="translate(13.362 16.791)" fill="rgba(255,255,255,0.26)"/>
</svg>
